<?xml version="1.0" encoding="UTF-8" standalone="no"?>
<!-- Generator: Adobe Illustrator 18.1.1, SVG Export Plug-In . SVG Version: 6.00 Build 0)  -->

<svg
   xmlns:dc="http://purl.org/dc/elements/1.1/"
   xmlns:cc="http://creativecommons.org/ns#"
   xmlns:rdf="http://www.w3.org/1999/02/22-rdf-syntax-ns#"
   xmlns:svg="http://www.w3.org/2000/svg"
   xmlns="http://www.w3.org/2000/svg"
   xmlns:sodipodi="http://sodipodi.sourceforge.net/DTD/sodipodi-0.dtd"
   xmlns:inkscape="http://www.inkscape.org/namespaces/inkscape"
   version="1.1"
   id="Capa_1"
   x="0px"
   y="0px"
   viewBox="0 0 245.1975 225.45604"
   xml:space="preserve"
   sodipodi:docname="boss.svg"
   inkscape:version="0.92.2 2405546, 2018-03-11"
   width="245.19749"
   height="225.45604"><metadata
   id="metadata7184"><rdf:RDF><cc:Work
       rdf:about=""><dc:format>image/svg+xml</dc:format><dc:type
         rdf:resource="http://purl.org/dc/dcmitype/StillImage" /></cc:Work></rdf:RDF></metadata><defs
   id="defs7182" /><sodipodi:namedview
   pagecolor="#ffffff"
   bordercolor="#666666"
   borderopacity="1"
   objecttolerance="10"
   gridtolerance="10"
   guidetolerance="10"
   inkscape:pageopacity="0"
   inkscape:pageshadow="2"
   inkscape:window-width="1920"
   inkscape:window-height="1040"
   id="namedview7180"
   showgrid="false"
   inkscape:zoom="1.1852523"
   inkscape:cx="-80.959673"
   inkscape:cy="199.51592"
   inkscape:window-x="0"
   inkscape:window-y="0"
   inkscape:window-maximized="1"
   inkscape:current-layer="Capa_1" />
<g
   id="g7147"
   transform="matrix(0.5,0,0,0.5,0,-0.33745884)">
	<g
   id="g7145">
		<path
   style="fill:#010002"
   d="M 189.545,258.962 H 1.971 C 0.883,258.962 0,259.845 0,260.933 v 34.288 c 0,1.088 0.882,1.971 1.971,1.971 h 15.992 v 152.424 c 0,1.089 0.882,1.971 1.971,1.971 h 119.849 c 1.088,0 1.971,-0.882 1.971,-1.971 V 297.191 h 47.791 c 1.088,0 1.971,-0.883 1.971,-1.971 v -34.288 c -0.001,-1.088 -0.883,-1.97 -1.971,-1.97 z"
   id="path7133"
   inkscape:connector-curvature="0" />
		<path
   style="fill:#010002"
   d="m 338.571,333.626 c 13.334,-12.204 19.002,-28.554 19.544,-55.932 l 2.501,-70.423 c 0.019,-0.535 -0.18,-1.053 -0.552,-1.438 -0.371,-0.385 -0.883,-0.602 -1.418,-0.602 h -21.795 c -1.062,0 -1.932,0.84 -1.97,1.9 l -2.516,70.49 c 0,18.713 -8.264,47.932 -42.901,47.932 -1.118,0 -40.316,-0.083 -40.316,-0.083 -0.001,0 -0.001,0 -0.002,0 -0.522,0 -1.024,0.208 -1.394,0.576 -0.369,0.37 -0.577,0.872 -0.577,1.395 v 21.765 c 0,1.088 0.882,1.97 1.971,1.97 h 36.132 v 67.681 h -10.999 c -15.589,0 -28.27,12.669 -28.27,28.242 0,1.088 0.882,1.971 1.97,1.971 h 14.505 c 1.089,0 1.971,-0.883 1.971,-1.971 0,-5.414 4.401,-9.818 9.811,-9.818 h 47.708 c 5.418,0 9.826,4.404 9.826,9.818 0,1.088 0.883,1.971 1.971,1.971 h 14.526 c 0.006,0.001 0.014,0.001 0.019,0 1.09,0 1.971,-0.883 1.971,-1.971 0,-0.099 -0.007,-0.195 -0.021,-0.29 -0.155,-15.439 -12.787,-27.952 -28.291,-27.952 h -10.979 v -70.479 c 10.819,-2.947 20.09,-7.905 27.575,-14.752 z"
   id="path7135"
   inkscape:connector-curvature="0" />
		<path
   style="fill:#010002"
   d="m 107.715,210.111 c 6.098,1.419 17.889,3.597 32.863,3.597 8.697,0 17.245,-0.753 25.474,-2.231 0.813,-4.408 2.1,-8.622 3.788,-12.369 -0.008,0 2.153,-5.49 6.033,-10.208 1.21,-1.497 2.525,-2.874 3.798,-4.138 -7.61,-15.467 -24.885,-24.476 -42.508,-20.704 -20.777,4.462 -34.029,24.917 -29.575,45.71 0.033,0.123 0.103,0.224 0.127,0.343 z"
   id="path7137"
   inkscape:connector-curvature="0" />
		<path
   style="fill:#010002"
   d="m 225.62,323.467 c 9.491,-3.347 63.108,-2.194 66.131,-2.657 42.139,0 46.801,-62.804 16.424,-84.103 -25.248,-17.702 -71.256,-55.68 -71.256,-55.68 -15.397,-12.024 -36.137,-6.636 -49.059,3.546 l -0.109,0.093 c 0,0 -4.429,3.738 -7.642,7.679 -3.38,4.125 -5.274,8.986 -5.274,8.986 -2.013,4.465 -3.343,9.547 -3.94,14.768 -37.606,7.855 -69.077,-1.864 -69.39,-1.945 -9.699,-3.227 -20.105,2.091 -23.271,11.772 -3.182,9.678 2.092,20.108 11.781,23.271 1.362,0.466 21.728,6.96 50.623,6.96 13.206,0 28.22,-1.43 43.992,-5.329 l 41.471,32.41 c -31.974,6.752 -36.941,19.267 -39.025,24.459 -7.672,19.177 -2.246,84.788 1.664,122.194 1.125,10.823 10.28,18.877 20.916,18.877 0.737,0 1.47,-0.03 2.215,-0.128 11.576,-1.206 19.958,-11.563 18.757,-23.135 -3.932,-37.752 -6.553,-86.956 -5.008,-102.038 z"
   id="path7139"
   inkscape:connector-curvature="0" />
		<path
   style="fill:#010002"
   d="m 434.594,38.808 c 24.156,0 43.735,19.58 43.735,43.733 0,24.149 -19.579,43.729 -43.735,43.729 -24.152,0 -43.732,-19.581 -43.732,-43.729 0.002,-24.153 19.582,-43.733 43.732,-43.733 z"
   id="path7141"
   inkscape:connector-curvature="0" />
		<path
   style="fill:#010002"
   d="m 490.395,160.825 c -0.592,-17.975 -16.76,-34.253 -44.82,-33.442 -4.903,0.048 -9.445,1.579 -9.445,1.579 -14.507,4.064 -29.821,16.586 -29.221,34.49 l 0.065,27.731 c 1.745,-6.1 4.06,-12.886 5.039,-20.609 0.84,1.741 1.895,3.342 3.13,4.798 -7.499,48.246 -33.366,63.175 -34.371,63.728 -8.374,4.254 -11.682,14.469 -7.461,22.822 3.017,5.911 9.859,9.589 16.039,9.589 8.727,-0.286 20.688,-12.03 20.688,-12.03 7.642,-6.931 17.236,-17.851 25.283,-34.063 v 9.038 c -8.277,14.382 -17.529,24.068 -24.714,30.154 1.946,10.44 9.101,18.043 17.783,22.64 v 138.376 c 0,12.784 10.374,23.157 23.15,23.157 12.791,0 23.166,-10.381 23.166,-23.157 V 285.154 c 9.354,-6.146 15.974,-15.764 15.582,-27.844 z"
   id="path7143"
   inkscape:connector-curvature="0" />
	</g>
</g>
<g
   id="g7149"
   transform="matrix(0.5,0,0,0.5,0,-0.33745884)">
</g>
<g
   id="g7151"
   transform="matrix(0.5,0,0,0.5,0,-0.33745884)">
</g>
<g
   id="g7153"
   transform="matrix(0.5,0,0,0.5,0,-0.33745884)">
</g>
<g
   id="g7155"
   transform="matrix(0.5,0,0,0.5,0,-0.33745884)">
</g>
<g
   id="g7157"
   transform="matrix(0.5,0,0,0.5,0,-0.33745884)">
</g>
<g
   id="g7159"
   transform="matrix(0.5,0,0,0.5,0,-0.33745884)">
</g>
<g
   id="g7161"
   transform="matrix(0.5,0,0,0.5,0,-0.33745884)">
</g>
<g
   id="g7163"
   transform="matrix(0.5,0,0,0.5,0,-0.33745884)">
</g>
<g
   id="g7165"
   transform="matrix(0.5,0,0,0.5,0,-0.33745884)">
</g>
<g
   id="g7167"
   transform="matrix(0.5,0,0,0.5,0,-0.33745884)">
</g>
<g
   id="g7169"
   transform="matrix(0.5,0,0,0.5,0,-0.33745884)">
</g>
<g
   id="g7171"
   transform="matrix(0.5,0,0,0.5,0,-0.33745884)">
</g>
<g
   id="g7173"
   transform="matrix(0.5,0,0,0.5,0,-0.33745884)">
</g>
<g
   id="g7175"
   transform="matrix(0.5,0,0,0.5,0,-0.33745884)">
</g>
<g
   id="g7177"
   transform="matrix(0.5,0,0,0.5,0,-0.33745884)">
</g>
<text
   xml:space="preserve"
   style="font-style:normal;font-weight:normal;font-size:8.19584656px;line-height:1.25;font-family:sans-serif;letter-spacing:0px;word-spacing:0px;fill:#000000;fill-opacity:1;stroke:none;stroke-width:0.20489617"
   x="62.24559"
   y="78.344238"
   id="text7188"
   transform="rotate(-24.064383)"><tspan
     sodipodi:role="line"
     x="62.24559"
     y="78.344238"
     id="tspan7194"
     style="font-size:8.19584656px;line-height:0;stroke-width:0.20489617">I need you to find all</tspan><tspan
     sodipodi:role="line"
     x="62.24559"
     y="88.58905"
     style="font-size:8.19584656px;line-height:0;stroke-width:0.20489617"
     id="tspan7205">vegan companies that </tspan><tspan
     sodipodi:role="line"
     x="62.24559"
     y="98.833847"
     style="font-size:8.19584656px;line-height:0;stroke-width:0.20489617"
     id="tspan7207">have office dogs for our new </tspan><tspan
     sodipodi:role="line"
     x="62.24559"
     y="109.07866"
     style="font-size:8.19584656px;line-height:0;stroke-width:0.20489617"
     id="tspan7209">vegan dog food product!</tspan></text>
<path
   style="fill:none;stroke:#000000;stroke-width:0.5px;stroke-linecap:butt;stroke-linejoin:miter;stroke-opacity:1"
   d="m 118.72093,18.156751 -66.51951,28.9345 c 0,0 53.99117,36.69013 58.16729,34.90037 4.17611,-1.78976 71.29222,-33.4089 71.29222,-33.4089 l 16.70444,3.57952 -11.63345,-11.33516 27.74132,-31.0225498 -45.34066,-9.54540004 z"
   id="path7211"
   inkscape:connector-curvature="0" /></svg>