<?xml version="1.0" encoding="UTF-8" standalone="no"?>
<!-- Created with Inkscape (http://www.inkscape.org/) -->

<svg
   xmlns:dc="http://purl.org/dc/elements/1.1/"
   xmlns:cc="http://creativecommons.org/ns#"
   xmlns:rdf="http://www.w3.org/1999/02/22-rdf-syntax-ns#"
   xmlns:svg="http://www.w3.org/2000/svg"
   xmlns="http://www.w3.org/2000/svg"
   xmlns:sodipodi="http://sodipodi.sourceforge.net/DTD/sodipodi-0.dtd"
   xmlns:inkscape="http://www.inkscape.org/namespaces/inkscape"
   width="52.773586mm"
   height="53.600872mm"
   viewBox="0 0 52.773586 53.600872"
   version="1.1"
   id="svg8"
   sodipodi:docname="data-board.svg"
   inkscape:version="0.92.2 2405546, 2018-03-11">
  <defs
     id="defs2" />
  <sodipodi:namedview
     id="base"
     pagecolor="#ffffff"
     bordercolor="#666666"
     borderopacity="1.0"
     inkscape:pageopacity="0.0"
     inkscape:pageshadow="2"
     inkscape:zoom="1.4"
     inkscape:cx="173.61817"
     inkscape:cy="87.247769"
     inkscape:document-units="mm"
     inkscape:current-layer="layer1"
     showgrid="false"
     inkscape:window-width="1920"
     inkscape:window-height="1040"
     inkscape:window-x="0"
     inkscape:window-y="0"
     inkscape:window-maximized="1" />
  <metadata
     id="metadata5">
    <rdf:RDF>
      <cc:Work
         rdf:about="">
        <dc:format>image/svg+xml</dc:format>
        <dc:type
           rdf:resource="http://purl.org/dc/dcmitype/StillImage" />
      </cc:Work>
    </rdf:RDF>
  </metadata>
  <g
     inkscape:label="Layer 1"
     inkscape:groupmode="layer"
     id="layer1"
     transform="translate(-14.890817,-43.481007)">
    <g
       id="g4875"
       transform="matrix(0.4813927,0,0,0.34645592,29.778318,43.481007)">
      <g
         id="g4819">
	<path
   id="path4817"
   d="m 12.675,7.556 -4,-4.037 3.552,-3.519 4,4.037 z m 7.536,0.494 -3.55,3.522 4.792,4.832 3.551,-3.521 z m 53.487,20.063 v 9.39 L 53.841,11.683 39.954,27.962 27.928,15.835 l -3.551,3.52 15.852,15.988 13.411,-15.72 15.885,20.656 -7.361,-2.795 -1.775,4.674 18.312,6.953 V 28.113 Z M 59.524,47.708 H 53.01 c -1.104,0 -2,0.896 -2,2 v 35.666 c 0,1.104 0.896,2 2,2 h 6.515 c 1.104,0 2,-0.896 2,-2 V 49.708 c -10e-4,-1.104 -0.896,-2 -2.001,-2 z m -21.331,10 H 31.68 c -1.104,0 -2,0.896 -2,2 v 25.666 c 0,1.104 0.896,2 2,2 h 6.513 c 1.105,0 2,-0.896 2,-2 V 59.708 c 0,-1.104 -0.895,-2 -2,-2 z M 17.191,28.041 h -6.513 c -1.104,0 -2,0.896 -2,2 v 55.333 c 0,1.104 0.896,2 2,2 h 6.513 c 1.105,0 2,-0.896 2,-2 V 30.041 c 0,-1.104 -0.895,-2 -2,-2 z"
   inkscape:connector-curvature="0" />

</g>
      <g
         id="g4821">
</g>
      <g
         id="g4823">
</g>
      <g
         id="g4825">
</g>
      <g
         id="g4827">
</g>
      <g
         id="g4829">
</g>
      <g
         id="g4831">
</g>
      <g
         id="g4833">
</g>
      <g
         id="g4835">
</g>
      <g
         id="g4837">
</g>
      <g
         id="g4839">
</g>
      <g
         id="g4841">
</g>
      <g
         id="g4843">
</g>
      <g
         id="g4845">
</g>
      <g
         id="g4847">
</g>
      <g
         id="g4849">
</g>
    </g>
    <path
       inkscape:connector-curvature="0"
       style="fill:#ffd05b;stroke-width:0.09021975"
       d="m 33.945351,68.982424 c -0.914606,0.652821 -0.473069,0.623155 0.06306,0.504405 l 0.06306,0.65282 c 1.76615,-0.05933 2.460035,-1.157225 2.55463,-1.305553 0,0 -1.072266,-1.008897 -2.680757,0.148328 z"
       id="path5183" />
    <path
       inkscape:connector-curvature="0"
       style="fill:#ff7058;stroke-width:0.09021975"
       d="m 25.74533,95.538914 c 0,0.65282 -0.346942,1.542966 -0.756948,1.542966 -0.410006,0 -0.756948,-0.890146 -0.756948,-1.542966 0,-0.652821 0.346942,-0.830815 0.756948,-0.830815 0.410006,0 0.756948,0.178082 0.756948,0.830815 z"
       id="path5185" />
    <path
       inkscape:connector-curvature="0"
       style="fill:#ffd05b;stroke-width:0.09021975"
       d="m 25.682267,80.020427 c -0.0946,-0.296744 -0.315411,-0.563736 -0.662353,-0.623154 h -0.03153 -0.03153 c -0.346942,0.05933 -0.567664,0.32641 -0.662352,0.623154 -0.78848,2.225365 -1.261549,5.519046 -0.630728,9.138961 0.599196,3.38259 0.883075,6.34986 0.883075,6.34986 0,0.563736 0.220815,0.86048 0.441537,0.890146 0.220815,-0.05933 0.410006,-0.65282 0.441538,-0.890146 0,0 0.283878,-2.967182 0.883075,-6.34986 0.63082,-3.619915 0.157751,-6.913596 -0.630728,-9.138961 z"
       id="path5187" />
    <path
       inkscape:connector-curvature="0"
       style="fill:#ff7058;stroke-width:0.09021975"
       d="m 20.005343,95.538914 c 0,0.65282 0.346942,1.542966 0.756948,1.542966 0.410006,0 0.756948,-0.890146 0.756948,-1.542966 0,-0.652821 -0.346942,-0.830815 -0.756948,-0.830815 -0.410006,0 -0.756948,0.178082 -0.756948,0.830815 z"
       id="path5189" />
    <g
       id="g5199"
       transform="matrix(0.093014,0,0,0.08750944,7.9890505,52.573529)">
	<path
   inkscape:connector-curvature="0"
   style="fill:#ffd05b"
   d="m 129.866,313.645 c 1.017,-3.391 3.391,-6.442 7.121,-7.121 h 0.339 0.339 c 3.73,0.678 6.103,3.73 7.121,7.121 8.477,25.43 13.563,63.068 6.781,104.434 -6.442,38.654 -9.494,72.562 -9.494,72.562 0,6.442 -2.374,9.833 -4.747,10.172 -2.374,-0.678 -4.408,-7.46 -4.747,-10.172 0,0 -3.052,-33.907 -9.494,-72.562 -7.121,-41.366 -1.696,-79.004 6.781,-104.434 z"
   id="path5191" />

	<path
   inkscape:connector-curvature="0"
   style="fill:#ffd05b"
   d="m 282.788,185.136 -42.384,4.069 c -3.391,-24.752 -7.46,-44.079 -7.46,-44.079 -6.442,-34.924 -27.804,-44.419 -42.723,-46.453 -4.408,-0.678 -15.258,-3.391 -15.258,-4.069 v 0 c 0,0 -2.713,-2.713 -3.391,-4.408 -4.069,-9.833 -5.425,-20.683 -5.425,-20.683 H 153.94 c 0,0 -1.017,10.85 -5.425,20.683 -0.678,1.695 -3.391,4.408 -3.391,4.408 0,0.339 -10.85,3.391 -15.597,4.069 -14.919,2.034 -36.281,11.528 -42.384,46.792 0,0 -15.597,75.274 -12.546,118.336 h 0.339 c -1.017,7.799 -0.678,18.649 4.747,32.212 1.017,2.374 3.73,2.713 5.425,1.017 1.017,-1.017 1.356,-2.374 0.678,-3.391 -1.695,-4.747 -7.121,-18.31 -1.017,-19.666 3.052,-0.678 5.764,2.374 5.425,5.425 l -0.339,2.713 c 0.678,2.374 3.391,3.391 5.425,2.034 0.678,-0.678 1.356,-1.695 1.356,-2.374 0,-3.052 -2.374,-17.632 -2.374,-17.632 0,0 1.695,-69.849 16.954,-98.331 1.695,8.816 2.374,17.632 2.713,26.787 h 91.211 c 0.339,-8.816 1.356,-17.971 2.713,-26.787 l 10.172,33.229 v 0 c 1.017,6.442 6.442,16.275 30.517,10.511 0,0 31.534,-3.73 37.298,-7.799 z"
   id="path5193" />

	
		<ellipse
   transform="matrix(0.4578,-0.889,0.889,0.4578,50.633,199.0213)"
   style="fill:#ffd05b"
   cx="188.491"
   cy="57.998001"
   rx="6.1030002"
   ry="3.052"
   id="ellipse5195" />

	
		<ellipse
   transform="matrix(0.4578,0.889,-0.889,0.4578,123.1423,-86.1821)"
   style="fill:#ffd05b"
   cx="132.23"
   cy="57.870998"
   rx="6.1030002"
   ry="3.052"
   id="ellipse5197" />

</g>
    <path
       inkscape:connector-curvature="0"
       style="fill:#f9b54c;stroke-width:0.09021975"
       d="m 23.884585,60.347868 c -0.31541,0.207747 -0.662353,0.32641 -1.009202,0.32641 -0.346942,0 -0.693884,-0.118663 -1.009202,-0.32641 0.346942,-0.830815 0.441538,-1.720961 0.441538,-1.720961 h 1.135422 c -9.3e-5,-8.8e-5 0.0945,0.890146 0.441444,1.720961 z"
       id="path5201" />
    <path
       inkscape:connector-curvature="0"
       style="fill:#ffd05b;stroke-width:0.09021975"
       d="m 25.55614,56.460786 c 0,1.839711 -1.198486,3.887082 -2.712289,3.887082 -1.513802,0 -2.712288,-2.077037 -2.712288,-3.887082 0,-1.810045 1.198486,-2.759523 2.712288,-2.759523 1.513803,0 2.712289,0.919899 2.712289,2.759523 z"
       id="path5203" />
    <path
       inkscape:connector-curvature="0"
       style="fill:#ff7058;stroke-width:0.09021975"
       d="m 27.953017,87.112017 c 0.283879,-2.670525 0.441538,-6.676182 0.441538,-8.041155 0,-1.631963 -0.220815,-3.17493 -0.630728,-4.510149 -0.756948,-2.462778 -0.914607,-5.044219 -0.410006,-7.53675 0,0 0,0 0,-0.02967 -0.851543,-1.305553 -0.599196,-5.548711 -0.599196,-5.548711 -0.346942,-0.118663 -0.693884,-0.207747 -1.009202,-0.267079 l -0.06306,1.631964 c -0.06306,1.424216 -1.293081,2.522109 -2.806884,2.522109 v 0 c -1.513803,0 -2.74382,-1.127559 -2.806883,-2.522109 l -0.06306,-1.631964 c -0.31541,0.05933 -0.662353,0.118663 -1.009202,0.267079 0,0 0.220815,4.24307 -0.567664,5.548711 0,0 0,0 0,0.02967 0.473069,2.492444 0.346942,5.073885 -0.410006,7.53675 -0.410006,1.335219 -0.630728,2.878186 -0.630728,4.510149 0,1.335219 0.157659,5.340964 0.441538,8.041155 z"
       id="path5205" />
    <path
       inkscape:connector-curvature="0"
       style="fill:#324a5e;stroke-width:0.09021975"
       d="m 24.010712,52.662789 c 0,0 3.469236,0.445073 1.513803,6.171778 l -0.126127,-0.682486 c 0,0 -0.0946,0.296744 -0.441538,0.890146 0,0 0.315411,-3.412256 -0.946138,-4.094742 0,0 0.126127,0.771483 -1.009202,1.513301 l 0.126127,-0.712152 c 0,0 -0.378474,0.949477 -2.018497,1.424216 l 0.189191,-0.445073 c 0,0 -1.419208,0.979143 -0.189191,2.551775 0,0 -2.964635,-1.572632 -0.536132,-5.667373 l -0.315411,0.177994 c 9.3e-5,-0.02949 1.040827,-1.602123 3.753115,-1.127384 z"
       id="path5207" />
    <path
       inkscape:connector-curvature="0"
       style="fill:#324a5e;stroke-width:0.09021975"
       d="m 35.427715,69.160418 v 0 c -0.09459,-0.118663 -0.09459,-0.267079 0.03153,-0.32641 l 8.736154,-5.548711 v 0 l -8.420743,5.964118 c -0.09469,0.05942 -0.252347,0.02975 -0.346943,-0.089 z"
       id="path5221" />
    <g
       id="g5223"
       transform="matrix(0.093014,0,0,0.08750944,7.9890505,52.573529)">
</g>
    <g
       id="g5225"
       transform="matrix(0.093014,0,0,0.08750944,7.9890505,52.573529)">
</g>
    <g
       id="g5227"
       transform="matrix(0.093014,0,0,0.08750944,7.9890505,52.573529)">
</g>
    <g
       id="g5229"
       transform="matrix(0.093014,0,0,0.08750944,7.9890505,52.573529)">
</g>
    <g
       id="g5231"
       transform="matrix(0.093014,0,0,0.08750944,7.9890505,52.573529)">
</g>
    <g
       id="g5233"
       transform="matrix(0.093014,0,0,0.08750944,7.9890505,52.573529)">
</g>
    <g
       id="g5235"
       transform="matrix(0.093014,0,0,0.08750944,7.9890505,52.573529)">
</g>
    <g
       id="g5237"
       transform="matrix(0.093014,0,0,0.08750944,7.9890505,52.573529)">
</g>
    <g
       id="g5239"
       transform="matrix(0.093014,0,0,0.08750944,7.9890505,52.573529)">
</g>
    <g
       id="g5241"
       transform="matrix(0.093014,0,0,0.08750944,7.9890505,52.573529)">
</g>
    <g
       id="g5243"
       transform="matrix(0.093014,0,0,0.08750944,7.9890505,52.573529)">
</g>
    <g
       id="g5245"
       transform="matrix(0.093014,0,0,0.08750944,7.9890505,52.573529)">
</g>
    <g
       id="g5247"
       transform="matrix(0.093014,0,0,0.08750944,7.9890505,52.573529)">
</g>
    <g
       id="g5249"
       transform="matrix(0.093014,0,0,0.08750944,7.9890505,52.573529)">
</g>
    <g
       id="g5251"
       transform="matrix(0.093014,0,0,0.08750944,7.9890505,52.573529)">
</g>
  </g>
</svg>
