<?xml version="1.0" encoding="UTF-8" standalone="no"?>
<!-- Generator: Adobe Illustrator 19.0.0, SVG Export Plug-In . SVG Version: 6.00 Build 0)  -->

<svg
   xmlns:dc="http://purl.org/dc/elements/1.1/"
   xmlns:cc="http://creativecommons.org/ns#"
   xmlns:rdf="http://www.w3.org/1999/02/22-rdf-syntax-ns#"
   xmlns:svg="http://www.w3.org/2000/svg"
   xmlns="http://www.w3.org/2000/svg"
   xmlns:sodipodi="http://sodipodi.sourceforge.net/DTD/sodipodi-0.dtd"
   xmlns:inkscape="http://www.inkscape.org/namespaces/inkscape"
   version="1.1"
   id="Layer_1"
   x="0px"
   y="0px"
   viewBox="0 0 325.18153 426.94494"
   xml:space="preserve"
   sodipodi:docname="dood.svg"
   width="325.18152"
   height="426.94492"
   inkscape:version="0.92.2 2405546, 2018-03-11"><metadata
   id="metadata3609"><rdf:RDF><cc:Work
       rdf:about=""><dc:format>image/svg+xml</dc:format><dc:type
         rdf:resource="http://purl.org/dc/dcmitype/StillImage" /><dc:title></dc:title></cc:Work></rdf:RDF></metadata><defs
   id="defs3607" /><sodipodi:namedview
   pagecolor="#ffffff"
   bordercolor="#666666"
   borderopacity="1"
   objecttolerance="10"
   gridtolerance="10"
   guidetolerance="10"
   inkscape:pageopacity="0"
   inkscape:pageshadow="2"
   inkscape:window-width="1920"
   inkscape:window-height="1040"
   id="namedview3605"
   showgrid="false"
   inkscape:zoom="1.3037256"
   inkscape:cx="87.247577"
   inkscape:cy="191.3968"
   inkscape:window-x="0"
   inkscape:window-y="0"
   inkscape:window-maximized="0"
   inkscape:current-layer="Layer_1" />



















<g
   id="g4187"
   transform="matrix(0.15681504,0,0,0.15681504,244.89209,186.60139)"><g
     id="g3554">
	<path
   id="path3538"
   d="m 65.658,422.803 c -4.035,0 -7.663,-2.809 -8.545,-6.914 L 51.614,390.283 C 45.583,362.198 62.569,334.287 90.285,326.74 l 16.883,-4.596 c 4.657,-1.267 9.47,1.482 10.739,6.144 1.269,4.663 -1.482,9.471 -6.144,10.741 l -16.881,4.595 c -18.748,5.105 -30.24,23.987 -26.159,42.986 l 5.499,25.606 c 1.014,4.725 -1.993,9.377 -6.717,10.392 -0.621,0.131 -1.238,0.195 -1.847,0.195 z"
   style="fill:#20272e"
   inkscape:connector-curvature="0" />
	<path
   id="path3540"
   d="m 17.152,338.958 c -0.352,0 -0.707,-0.022 -1.065,-0.065 -4.797,-0.582 -8.214,-4.943 -7.632,-9.74 l 3.156,-25.999 c 3.461,-28.516 28.651,-49.362 57.283,-47.451 l 17.457,1.162 c 4.821,0.321 8.47,4.49 8.148,9.31 -0.321,4.821 -4.512,8.461 -9.31,8.148 l -17.457,-1.162 c -19.394,-1.284 -36.411,12.81 -38.751,32.1 l -3.156,25.999 c -0.537,4.441 -4.311,7.698 -8.673,7.698 z"
   style="fill:#20272e"
   inkscape:connector-curvature="0" />
	<path
   id="path3542"
   d="m 8.742,235.468 c -1.409,0 -2.839,-0.341 -4.163,-1.06 -4.249,-2.304 -5.822,-7.615 -3.518,-11.863 L 13.55,199.525 C 27.249,174.276 58.314,164.139 84.265,176.45 l 15.808,7.496 c 4.365,2.071 6.227,7.289 4.156,11.654 -2.068,4.366 -7.286,6.226 -11.654,4.156 L 76.767,192.26 c -17.559,-8.328 -38.57,-1.47 -47.837,15.61 l -12.489,23.02 c -1.585,2.92 -4.592,4.578 -7.699,4.578 z"
   style="fill:#20272e"
   inkscape:connector-curvature="0" />
	<path
   id="path3544"
   d="m 145.519,139.397 c -2.697,0 -5.356,-1.241 -7.069,-3.585 l -10.328,-14.121 c -11.469,-15.686 -33.208,-19.67 -49.495,-9.068 l -21.949,14.288 c -4.044,2.636 -9.467,1.491 -12.105,-2.558 -2.636,-4.049 -1.491,-9.469 2.558,-12.105 L 69.079,97.959 c 24.073,-15.672 56.213,-9.785 73.167,13.404 l 10.328,14.121 c 2.852,3.901 2.003,9.375 -1.898,12.227 -1.557,1.137 -3.365,1.686 -5.157,1.686 z"
   style="fill:#20272e"
   inkscape:connector-curvature="0" />
	<path
   id="path3546"
   d="m 446.342,422.803 c -0.609,0 -1.227,-0.064 -1.847,-0.196 -4.725,-1.015 -7.731,-5.667 -6.717,-10.392 l 5.499,-25.606 c 4.081,-18.999 -7.411,-37.881 -26.16,-42.986 l -16.879,-4.595 c -4.663,-1.269 -7.414,-6.078 -6.144,-10.741 1.269,-4.663 6.081,-7.41 10.739,-6.144 l 16.88,4.595 c 27.718,7.547 44.704,35.459 38.672,63.544 l -5.499,25.606 c -0.881,4.106 -4.509,6.915 -8.544,6.915 z"
   style="fill:#20272e"
   inkscape:connector-curvature="0" />
	<path
   id="path3548"
   d="m 494.847,338.958 c -4.361,0 -8.136,-3.257 -8.675,-7.697 l -3.154,-25.999 c -2.341,-19.29 -19.352,-33.395 -38.752,-32.1 l -17.457,1.162 c -4.81,0.316 -8.99,-3.327 -9.31,-8.148 -0.32,-4.821 3.328,-8.991 8.148,-9.31 l 17.457,-1.162 c 28.67,-1.902 53.825,18.936 57.284,47.453 l 3.154,25.999 c 0.582,4.797 -2.835,9.158 -7.632,9.74 -0.356,0.041 -0.712,0.062 -1.063,0.062 z"
   style="fill:#20272e"
   inkscape:connector-curvature="0" />
	<path
   id="path3550"
   d="m 503.258,235.468 c -3.105,0 -6.113,-1.657 -7.698,-4.579 l -12.489,-23.02 c -9.267,-17.081 -30.283,-23.937 -47.839,-15.61 l -15.807,7.496 c -4.368,2.07 -9.586,0.21 -11.654,-4.156 -2.071,-4.366 -0.21,-9.583 4.156,-11.654 l 15.807,-7.496 c 25.949,-12.311 57.016,-2.176 70.716,23.075 l 12.489,23.02 c 2.305,4.247 0.73,9.559 -3.518,11.863 -1.325,0.719 -2.754,1.061 -4.163,1.061 z"
   style="fill:#20272e"
   inkscape:connector-curvature="0" />
	<path
   id="path3552"
   d="m 366.482,139.397 c -1.792,0 -3.6,-0.548 -5.157,-1.687 -3.901,-2.852 -4.75,-8.326 -1.898,-12.227 l 10.326,-14.121 c 16.954,-23.187 49.093,-29.077 73.168,-13.404 l 21.948,14.289 c 4.05,2.636 5.195,8.056 2.558,12.105 -2.639,4.05 -8.055,5.195 -12.105,2.558 l -21.948,-14.289 c -16.282,-10.599 -38.028,-6.619 -49.497,9.067 l -10.326,14.121 c -1.714,2.346 -4.373,3.588 -7.069,3.588 z"
   style="fill:#20272e"
   inkscape:connector-curvature="0" />
</g><path
     id="path3556"
     d="M 280.829,102.917 H 231.17 c -80.832,0 -146.359,65.527 -146.359,146.359 v 0 c 0,80.832 65.527,146.359 146.359,146.359 h 49.658 c 80.833,0 146.36,-65.527 146.36,-146.359 v 0 c 0,-80.832 -65.527,-146.359 -146.359,-146.359 z"
     style="fill:#5a595c"
     inkscape:connector-curvature="0" /><g
     id="g3564">
	<circle
   id="circle3558"
   r="14.579"
   cy="263.79599"
   cx="178.089"
   style="fill:#20272e" />
	<circle
   id="circle3560"
   r="14.579"
   cy="263.79599"
   cx="333.90701"
   style="fill:#20272e" />
	<path
   id="path3562"
   d="m 307.329,291.819 c 0,28.349 -22.981,51.329 -51.329,51.329 -28.348,0 -51.329,-22.981 -51.329,-51.329 z"
   style="fill:#20272e"
   inkscape:connector-curvature="0" />
</g><g
     id="g3570">
	<path
   id="path3566"
   d="m 226.219,291.819 v 13.629 c 0,4.832 3.916,8.749 8.749,8.749 4.833,0 8.749,-3.917 8.749,-8.749 v -13.629 z"
   style="fill:#ffffff"
   inkscape:connector-curvature="0" />
	<path
   id="path3568"
   d="m 268.282,291.819 v 13.629 c 0,4.832 3.916,8.749 8.749,8.749 4.833,0 8.749,-3.917 8.749,-8.749 v -13.629 z"
   style="fill:#ffffff"
   inkscape:connector-curvature="0" />
</g><path
     id="path3572"
     d="m 510.94,222.544 -12.489,-23.02 c -13.7,-25.25 -44.767,-35.386 -70.716,-23.075 l -15.807,7.496 c -0.028,0.013 -0.054,0.03 -0.082,0.044 -9.298,-18.623 -22.445,-34.987 -38.405,-48.045 0.035,-0.047 0.076,-0.086 0.111,-0.134 l 10.326,-14.121 c 11.47,-15.686 33.216,-19.667 49.497,-9.067 l 21.948,14.289 c 4.05,2.636 9.467,1.492 12.105,-2.558 2.636,-4.049 1.491,-9.469 -2.558,-12.105 L 442.922,97.959 c -24.076,-15.673 -56.215,-9.784 -73.168,13.404 l -10.326,14.121 c -0.053,0.072 -0.094,0.147 -0.145,0.22 -22.676,-14.426 -49.587,-22.787 -78.453,-22.787 h -24.829 v 292.719 h 24.829 c 47.608,0 89.898,-22.736 116.628,-57.936 0.821,0.587 1.751,1.048 2.781,1.329 l 16.879,4.595 c 18.749,5.105 30.241,23.987 26.16,42.986 l -5.499,25.606 c -1.014,4.725 1.993,9.377 6.717,10.392 0.619,0.133 1.238,0.196 1.847,0.196 4.035,0 7.663,-2.809 8.545,-6.914 l 5.499,-25.606 c 6.032,-28.085 -10.955,-55.996 -38.672,-63.544 l -14.336,-3.903 c 8.591,-14.747 14.675,-31.131 17.676,-48.571 0.572,0.077 1.158,0.099 1.755,0.061 l 17.457,-1.162 c 19.4,-1.295 36.411,12.81 38.752,32.1 l 3.154,25.999 c 0.539,4.439 4.313,7.697 8.675,7.697 0.352,0 0.707,-0.022 1.065,-0.065 4.797,-0.582 8.214,-4.943 7.632,-9.74 l -3.154,-25.999 c -3.46,-28.517 -28.615,-49.354 -57.284,-47.453 l -16.104,1.072 c 0.125,-2.484 0.189,-4.984 0.189,-7.499 v 0 c 0,-17.269 -3,-33.836 -8.491,-49.219 0.244,-0.09 0.488,-0.188 0.729,-0.301 l 15.807,-7.496 c 17.556,-8.327 38.57,-1.471 47.839,15.61 l 12.489,23.02 c 1.584,2.921 4.593,4.579 7.698,4.579 1.409,0 2.839,-0.341 4.163,-1.06 4.244,-2.307 5.818,-7.619 3.514,-11.866 z"
     style="opacity:0.3;fill:#20272e;enable-background:new"
     inkscape:connector-curvature="0" /><g
     id="g3574">
</g><g
     id="g3576">
</g><g
     id="g3578">
</g><g
     id="g3580">
</g><g
     id="g3582">
</g><g
     id="g3584">
</g><g
     id="g3586">
</g><g
     id="g3588">
</g><g
     id="g3590">
</g><g
     id="g3592">
</g><g
     id="g3594">
</g><g
     id="g3596">
</g><g
     id="g3598">
</g><g
     id="g3600">
</g><g
     id="g3602">
</g></g>
<g
   id="g4442"
   transform="matrix(0.60709751,0,0,0.60709751,-60.580861,120.8931)"><path
     id="path4303"
     d="m 280.113,258.095 c 11.28,10.027 33.304,3.663 49.223,-14.218 15.896,-17.881 85.016,-114.018 73.767,-124.062 -11.296,-10.012 -98.714,69.892 -114.609,87.773 -15.896,17.857 -19.653,40.472 -8.381,50.507 z"
     style="fill:#8f9e9c"
     inkscape:connector-curvature="0" /><g
     id="g4309">
	<path
   id="path4305"
   d="m 226.069,361.913 c 0,19.503 -15.817,124.668 -35.336,124.668 -19.495,0 -35.304,-105.173 -35.304,-124.668 0,-19.495 15.817,-35.32 35.304,-35.32 19.52,0 35.336,15.825 35.336,35.32 z"
   style="fill:#232728"
   inkscape:connector-curvature="0" />
	<path
   id="path4307"
   d="m 344.42,361.913 c 0,19.503 -15.817,124.668 -35.336,124.668 -19.495,0 -35.304,-105.173 -35.304,-124.668 0,-19.495 15.817,-35.32 35.304,-35.32 19.519,0 35.336,15.825 35.336,35.32 z"
   style="fill:#232728"
   inkscape:connector-curvature="0" />
</g><path
     id="path4311"
     d="m 349.556,315.242 c 0,126.33 -44.607,84.259 -99.643,84.259 -55.028,0 -99.643,42.071 -99.643,-84.259 0,-72.231 44.631,-130.781 99.643,-130.781 55.028,0.009 99.643,58.558 99.643,130.781 z"
     style="fill:#a5b7b5"
     inkscape:connector-curvature="0" /><path
     id="path4313"
     d="m 249.913,366.033 c -51.617,0 -94.074,37.006 -99.139,-62.661 -0.339,3.458 -0.504,7.396 -0.504,11.878 0,126.33 44.615,84.259 99.643,84.259 55.036,0 99.643,42.071 99.643,-84.259 0,-4.474 -0.165,-8.413 -0.504,-11.878 -5.073,99.667 -47.506,62.661 -99.139,62.661 z"
     style="fill:#8f9e9c"
     inkscape:connector-curvature="0" /><path
     id="path4315"
     d="m 230.48,487.219 c 0,14.935 -17.802,16.904 -39.747,16.904 -21.929,0 -39.739,-1.961 -39.739,-16.904 0,-14.943 17.81,-35.509 39.739,-35.509 21.946,0.008 39.747,20.567 39.747,35.509 z"
     style="fill:#11d3c0"
     inkscape:connector-curvature="0" /><path
     id="path4317"
     d="m 230.48,487.219 c 0,14.935 -17.802,16.904 -39.747,16.904 -21.929,0 -39.739,-1.961 -39.739,-16.904"
     style="fill:#13a9d1"
     inkscape:connector-curvature="0" /><path
     id="path4319"
     d="m 348.831,487.219 c 0,14.935 -17.786,16.904 -39.731,16.904 -21.937,0 -39.739,-1.961 -39.739,-16.904 0,-14.943 17.802,-35.509 39.739,-35.509 21.945,0.008 39.731,20.567 39.731,35.509 z"
     style="fill:#11d3c0"
     inkscape:connector-curvature="0" /><path
     id="path4321"
     d="m 348.831,487.219 c 0,14.935 -17.786,16.904 -39.731,16.904 -21.937,0 -39.739,-1.961 -39.739,-16.904"
     style="fill:#13a9d1"
     inkscape:connector-curvature="0" /><path
     id="path4323"
     d="m 238.932,203.768 c 10.027,11.28 3.663,33.304 -14.218,49.223 -17.881,15.896 -114.026,85.024 -124.062,73.767 -10.012,-11.296 69.9,-98.714 87.765,-114.609 17.865,-15.895 40.48,-19.653 50.515,-8.381 z"
     style="fill:#a5b7b5"
     inkscape:connector-curvature="0" /><polygon
     id="polygon4325"
     points="272.614,268.469 294.402,199.712 231.26,202.5 "
     style="fill:#ce8c67" /><path
     id="path4327"
     d="m 378.866,124.258 c 0,63.008 -57.746,94.681 -128.937,94.681 -71.215,0 -128.969,-31.673 -128.969,-94.681 C 120.96,61.235 178.713,0 249.929,0 321.12,0 378.866,61.235 378.866,124.258 Z"
     style="fill:#e8b085"
     inkscape:connector-curvature="0" /><path
     id="path4329"
     d="m 378.866,124.258 c 0,63.008 -57.746,94.681 -128.937,94.681 -71.215,0 -128.969,-31.673 -128.969,-94.681"
     style="fill:#dd9f76"
     inkscape:connector-curvature="0" /><circle
     id="circle4331"
     r="11.532"
     cy="135.877"
     cx="225.754"
     style="fill:#113e49" /><path
     id="path4333"
     d="m 237.318,135.877 c 0,6.388 -5.167,11.54 -11.54,11.54 -6.372,0 -11.524,-5.151 -11.524,-11.54"
     inkscape:connector-curvature="0" /><path
     id="path4335"
     d="m 248.534,159.933 c -0.614,0 -1.245,-0.221 -1.725,-0.717 -5.632,-5.624 -13.107,-8.72 -21.047,-8.72 h -0.008 c -7.94,0 -15.399,3.104 -21,8.712 -0.953,0.953 -2.489,0.977 -3.434,0.008 -0.953,-0.922 -0.985,-2.458 -0.031,-3.419 6.538,-6.546 15.218,-10.161 24.458,-10.161 h 0.016 c 9.263,0 17.951,3.592 24.505,10.145 0.937,0.937 0.937,2.505 0,3.434 -0.473,0.49 -1.088,0.718 -1.734,0.718 z"
     style="fill:#f4c3a2"
     inkscape:connector-curvature="0" /><circle
     id="circle4337"
     r="11.532"
     cy="135.877"
     cx="348.43701"
     style="fill:#113e49" /><path
     id="path4339"
     d="m 336.906,135.877 c 0,6.388 5.151,11.54 11.54,11.54 6.372,0 11.524,-5.151 11.524,-11.54"
     inkscape:connector-curvature="0" /><path
     id="path4341"
     d="m 325.689,159.933 c 0.599,0 1.229,-0.221 1.709,-0.717 5.632,-5.624 13.107,-8.72 21.047,-8.72 h 0.016 c 7.94,0 15.415,3.104 21.016,8.712 0.937,0.953 2.473,0.977 3.434,0.008 0.953,-0.922 0.969,-2.458 0.016,-3.419 -6.506,-6.546 -15.218,-10.161 -24.458,-10.161 h -0.016 c -9.248,0 -17.936,3.592 -24.505,10.145 -0.922,0.937 -0.922,2.505 0,3.434 0.481,0.49 1.095,0.718 1.741,0.718 z"
     style="fill:#f4c3a2"
     inkscape:connector-curvature="0" /><path
     id="path4343"
     d="m 296.891,162.887 c 0,0 -13.477,-29.003 -49.719,-5.175 -36.242,23.828 -39.353,16.565 -39.353,16.565 0,0 38.313,27.987 79.754,10.382 l 6.215,-5.199 z"
     style="fill:#663f24"
     inkscape:connector-curvature="0" /><path
     id="path4345"
     d="m 207.811,174.269 c 0,0 38.313,27.987 79.754,10.382 l 6.215,-5.199 3.111,-16.573"
     style="fill:#543722"
     inkscape:connector-curvature="0" /><path
     id="path4347"
     d="m 289.613,162.887 c 0,0 13.462,-29.003 49.711,-5.175 36.249,23.828 39.353,16.565 39.353,16.565 0,0 -38.305,27.987 -79.738,10.382 l -6.231,-5.199 z"
     style="fill:#663f24"
     inkscape:connector-curvature="0" /><path
     id="path4349"
     d="m 378.677,174.269 c 0,0 -38.305,27.987 -79.738,10.382 l -6.231,-5.199 -3.096,-16.573"
     style="fill:#543722"
     inkscape:connector-curvature="0" /><path
     id="path4351"
     d="m 122.622,107.654 c 0,0 17.723,-37.415 33.477,0 v 32.823 h 13.131 v -35.446 l 29.216,-29.208 c 0,0 -19.527,-67.048 -48.412,-39.479 -28.885,27.569 -30.035,47.679 -29.373,59.494 0.661,11.816 1.961,11.816 1.961,11.816 z"
     style="fill:#663f24"
     inkscape:connector-curvature="0" /><g
     id="g4359">
	<circle
   id="circle4353"
   r="5.908"
   cy="293.08499"
   cx="272.62201"
   style="fill:#6a7775" />
	<circle
   id="circle4355"
   r="5.908"
   cy="324.59201"
   cx="272.62201"
   style="fill:#6a7775" />
	<circle
   id="circle4357"
   r="5.908"
   cy="356.10001"
   cx="272.62201"
   style="fill:#6a7775" />
</g><g
     id="g4361">
</g><g
     id="g4363">
</g><g
     id="g4365">
</g><g
     id="g4367">
</g><g
     id="g4369">
</g><g
     id="g4371">
</g><g
     id="g4373">
</g><g
     id="g4375">
</g><g
     id="g4377">
</g><g
     id="g4379">
</g><g
     id="g4381">
</g><g
     id="g4383">
</g><g
     id="g4385">
</g><g
     id="g4387">
</g><g
     id="g4389">
</g></g><path
   style="fill:none;stroke:#000000;stroke-width:1px;stroke-linecap:butt;stroke-linejoin:miter;stroke-opacity:1"
   d="M 285.0369,202.74032 V 0"
   id="path4444"
   inkscape:connector-curvature="0" /><text
   xml:space="preserve"
   style="font-style:normal;font-weight:normal;font-size:13.33333302px;line-height:1.25;font-family:sans-serif;letter-spacing:0px;word-spacing:0px;fill:#000000;fill-opacity:1;stroke:none"
   x="21.877724"
   y="88.20874"
   id="text4448"><tspan
     sodipodi:role="line"
     id="tspan4446"
     x="21.877724"
     y="88.20874">Could you go to goal.com and tell me</tspan><tspan
     sodipodi:role="line"
     x="21.877724"
     y="104.8754"
     id="tspan4450">when my team starts playing?</tspan></text>
<path
   style="fill:none;stroke:#000000;stroke-width:1px;stroke-linecap:butt;stroke-linejoin:miter;stroke-opacity:1"
   d="m 11.139257,63.85546 c -11.11482533,6.806521 -14.5988613,35.86193 -2.1093393,47.36426 4.9857113,9.97143 185.6582623,-1.183 184.3028323,6.27185 3.33854,0.83464 -24.18479,61.22702 -21.11666,58.15889 3.06813,-3.06813 28.81952,-51.4389 35.41909,-56.93854 23.16134,-11.46194 45.89673,1.38163 56.26057,-10.99437 C 274.83364,91.114021 286.59248,78.725181 276.12973,65.918271 269.18088,52.417768 41.707213,53.066648 11.139257,63.85546 Z"
   id="path4452"
   inkscape:connector-curvature="0"
   sodipodi:nodetypes="cccscccc" /></svg>