<?xml version="1.0" encoding="UTF-8" standalone="no"?>
<svg
   xmlns:dc="http://purl.org/dc/elements/1.1/"
   xmlns:cc="http://creativecommons.org/ns#"
   xmlns:rdf="http://www.w3.org/1999/02/22-rdf-syntax-ns#"
   xmlns:svg="http://www.w3.org/2000/svg"
   xmlns="http://www.w3.org/2000/svg"
   xmlns:sodipodi="http://sodipodi.sourceforge.net/DTD/sodipodi-0.dtd"
   xmlns:inkscape="http://www.inkscape.org/namespaces/inkscape"
   inkscape:version="1.0 (4035a4fb49, 2020-05-01)"
   height="243.60133"
   width="403.61044"
   sodipodi:docname="hammer-spider.svg"
   xml:space="preserve"
   viewBox="0 0 403.61044 243.60133"
   y="0px"
   x="0px"
   id="Layer_1"
   version="1.1"><metadata
   id="metadata1057"><rdf:RDF><cc:Work
       rdf:about=""><dc:format>image/svg+xml</dc:format><dc:type
         rdf:resource="http://purl.org/dc/dcmitype/StillImage" /><dc:title></dc:title></cc:Work></rdf:RDF></metadata><defs
   id="defs1055" /><sodipodi:namedview
   inkscape:current-layer="Layer_1"
   inkscape:window-maximized="1"
   inkscape:window-y="0"
   inkscape:window-x="0"
   inkscape:cy="149.79317"
   inkscape:cx="246.23573"
   inkscape:zoom="1.6367188"
   showgrid="false"
   id="namedview1053"
   inkscape:window-height="1040"
   inkscape:window-width="1920"
   inkscape:pageshadow="2"
   inkscape:pageopacity="0"
   guidetolerance="10"
   gridtolerance="10"
   objecttolerance="10"
   borderopacity="1"
   bordercolor="#666666"
   pagecolor="#ffffff" />





<g
   transform="translate(-9.7642699,-106.20683)"
   id="g1022">
</g>
<g
   transform="translate(-9.7642699,-106.20683)"
   id="g1024">
</g>
<g
   transform="translate(-9.7642699,-106.20683)"
   id="g1026">
</g>
<g
   transform="translate(-9.7642699,-106.20683)"
   id="g1028">
</g>
<g
   transform="translate(-9.7642699,-106.20683)"
   id="g1030">
</g>
<g
   transform="translate(-9.7642699,-106.20683)"
   id="g1032">
</g>
<g
   transform="translate(-9.7642699,-106.20683)"
   id="g1034">
</g>
<g
   transform="translate(-9.7642699,-106.20683)"
   id="g1036">
</g>
<g
   transform="translate(-9.7642699,-106.20683)"
   id="g1038">
</g>
<g
   transform="translate(-9.7642699,-106.20683)"
   id="g1040">
</g>
<g
   transform="translate(-9.7642699,-106.20683)"
   id="g1042">
</g>
<g
   transform="translate(-9.7642699,-106.20683)"
   id="g1044">
</g>
<g
   transform="translate(-9.7642699,-106.20683)"
   id="g1046">
</g>
<g
   transform="translate(-9.7642699,-106.20683)"
   id="g1048">
</g>
<g
   transform="translate(-9.7642699,-106.20683)"
   id="g1050">
</g>
<g
   transform="translate(-9.7642699,-106.20683)"
   id="g2257"><g
     id="g1495"
     transform="matrix(0.20763806,0,0,0.20763806,9.764231,253.66718)"><path
       id="path1479"
       d="m 65.658,422.803 c -4.035,0 -7.663,-2.809 -8.545,-6.914 L 51.614,390.283 C 45.583,362.198 62.569,334.287 90.285,326.74 l 16.883,-4.596 c 4.657,-1.267 9.47,1.482 10.739,6.144 1.269,4.663 -1.482,9.471 -6.144,10.741 l -16.881,4.595 c -18.748,5.105 -30.24,23.987 -26.159,42.986 l 5.499,25.606 c 1.014,4.725 -1.993,9.377 -6.717,10.392 -0.621,0.131 -1.238,0.195 -1.847,0.195 z"
       style="fill:#20272e" /><path
       id="path1481"
       d="m 17.152,338.958 c -0.352,0 -0.707,-0.022 -1.065,-0.065 -4.797,-0.582 -8.214,-4.943 -7.632,-9.74 l 3.156,-25.999 c 3.461,-28.516 28.651,-49.362 57.283,-47.451 l 17.457,1.162 c 4.821,0.321 8.47,4.49 8.148,9.31 -0.321,4.821 -4.512,8.461 -9.31,8.148 l -17.457,-1.162 c -19.394,-1.284 -36.411,12.81 -38.751,32.1 l -3.156,25.999 c -0.537,4.441 -4.311,7.698 -8.673,7.698 z"
       style="fill:#20272e" /><path
       id="path1483"
       d="m 8.742,235.468 c -1.409,0 -2.839,-0.341 -4.163,-1.06 -4.249,-2.304 -5.822,-7.615 -3.518,-11.863 L 13.55,199.525 C 27.249,174.276 58.314,164.139 84.265,176.45 l 15.808,7.496 c 4.365,2.071 6.227,7.289 4.156,11.654 -2.068,4.366 -7.286,6.226 -11.654,4.156 L 76.767,192.26 c -17.559,-8.328 -38.57,-1.47 -47.837,15.61 l -12.489,23.02 c -1.585,2.92 -4.592,4.578 -7.699,4.578 z"
       style="fill:#20272e" /><path
       id="path1485"
       d="m 145.519,139.397 c -2.697,0 -5.356,-1.241 -7.069,-3.585 l -10.328,-14.121 c -11.469,-15.686 -33.208,-19.67 -49.495,-9.068 l -21.949,14.288 c -4.044,2.636 -9.467,1.491 -12.105,-2.558 -2.636,-4.049 -1.491,-9.469 2.558,-12.105 L 69.079,97.959 c 24.073,-15.672 56.213,-9.785 73.167,13.404 l 10.328,14.121 c 2.852,3.901 2.003,9.375 -1.898,12.227 -1.557,1.137 -3.365,1.686 -5.157,1.686 z"
       style="fill:#20272e" /><path
       id="path1487"
       d="m 446.342,422.803 c -0.609,0 -1.227,-0.064 -1.847,-0.196 -4.725,-1.015 -7.731,-5.667 -6.717,-10.392 l 5.499,-25.606 c 4.081,-18.999 -7.411,-37.881 -26.16,-42.986 l -16.879,-4.595 c -4.663,-1.269 -7.414,-6.078 -6.144,-10.741 1.269,-4.663 6.081,-7.41 10.739,-6.144 l 16.88,4.595 c 27.718,7.547 44.704,35.459 38.672,63.544 l -5.499,25.606 c -0.881,4.106 -4.509,6.915 -8.544,6.915 z"
       style="fill:#20272e" /><path
       id="path1489"
       d="m 494.847,338.958 c -4.361,0 -8.136,-3.257 -8.675,-7.697 l -3.154,-25.999 c -2.341,-19.29 -19.352,-33.395 -38.752,-32.1 l -17.457,1.162 c -4.81,0.316 -8.99,-3.327 -9.31,-8.148 -0.32,-4.821 3.328,-8.991 8.148,-9.31 l 17.457,-1.162 c 28.67,-1.902 53.825,18.936 57.284,47.453 l 3.154,25.999 c 0.582,4.797 -2.835,9.158 -7.632,9.74 -0.356,0.041 -0.712,0.062 -1.063,0.062 z"
       style="fill:#20272e" /><path
       id="path1491"
       d="m 503.258,235.468 c -3.105,0 -6.113,-1.657 -7.698,-4.579 l -12.489,-23.02 c -9.267,-17.081 -30.283,-23.937 -47.839,-15.61 l -15.807,7.496 c -4.368,2.07 -9.586,0.21 -11.654,-4.156 -2.071,-4.366 -0.21,-9.583 4.156,-11.654 l 15.807,-7.496 c 25.949,-12.311 57.016,-2.176 70.716,23.075 l 12.489,23.02 c 2.305,4.247 0.73,9.559 -3.518,11.863 -1.325,0.719 -2.754,1.061 -4.163,1.061 z"
       style="fill:#20272e" /><path
       id="path1493"
       d="m 366.482,139.397 c -1.792,0 -3.6,-0.548 -5.157,-1.687 -3.901,-2.852 -4.75,-8.326 -1.898,-12.227 l 10.326,-14.121 c 16.954,-23.187 49.093,-29.077 73.168,-13.404 l 21.948,14.289 c 4.05,2.636 5.195,8.056 2.558,12.105 -2.639,4.05 -8.055,5.195 -12.105,2.558 l -21.948,-14.289 c -16.282,-10.599 -38.028,-6.619 -49.497,9.067 l -10.326,14.121 c -1.714,2.346 -4.373,3.588 -7.069,3.588 z"
       style="fill:#20272e" /></g><path
     id="path1497"
     d="m 68.075013,275.03666 h -10.31109 c -16.783803,0 -30.389701,13.6059 -30.389701,30.3897 v 0 c 0,16.7838 13.605898,30.3897 30.389701,30.3897 h 10.31089 c 16.784,0 30.389901,-13.6059 30.389901,-30.3897 v 0 c 0,-16.7838 -13.605901,-30.3897 -30.389701,-30.3897 z"
     style="fill:#5a595c;stroke-width:0.207638" /><g
     id="g1505"
     transform="matrix(0.20763806,0,0,0.20763806,9.764231,253.66718)"><circle
       id="circle1499"
       r="14.579"
       cy="263.79599"
       cx="178.089"
       style="fill:#20272e" /><circle
       id="circle1501"
       r="14.579"
       cy="263.79599"
       cx="333.90701"
       style="fill:#20272e" /><path
       id="path1503"
       d="m 307.329,291.819 c 0,28.349 -22.981,51.329 -51.329,51.329 -28.348,0 -51.329,-22.981 -51.329,-51.329 z"
       style="fill:#20272e" /></g><g
     id="g1511"
     transform="matrix(0.20763806,0,0,0.20763806,9.764231,253.66718)"><path
       id="path1507"
       d="m 226.219,291.819 v 13.629 c 0,4.832 3.916,8.749 8.749,8.749 4.833,0 8.749,-3.917 8.749,-8.749 v -13.629 z"
       style="fill:#ffffff" /><path
       id="path1509"
       d="m 268.282,291.819 v 13.629 c 0,4.832 3.916,8.749 8.749,8.749 4.833,0 8.749,-3.917 8.749,-8.749 v -13.629 z"
       style="fill:#ffffff" /></g><path
     id="path1513"
     d="m 115.85482,299.87578 -2.59319,-4.77983 c -2.84465,-5.24286 -9.29534,-7.34748 -14.683336,-4.79124 l -3.28213,1.55645 c -0.006,0.003 -0.0112,0.006 -0.017,0.009 -1.930621,-3.86685 -4.660441,-7.26464 -7.974341,-9.97597 0.007,-0.01 0.0158,-0.0179 0.0231,-0.0278 l 2.14407,-2.93206 c 2.38161,-3.25701 6.896911,-4.08361 10.277461,-1.88265 l 4.557236,2.96694 c 0.84094,0.54733 1.96571,0.3098 2.51346,-0.53114 0.54733,-0.84072 0.30959,-1.96612 -0.53114,-2.51346 l -4.55724,-2.96694 c -4.999086,-3.25431 -11.672367,-2.03153 -15.192457,2.78318 l -2.14407,2.93206 c -0.011,0.0149 -0.0195,0.0305 -0.0301,0.0457 -4.7084,-2.99538 -10.29615,-4.73145 -16.28983,-4.73145 h -5.15544 v 60.77961 h 5.15544 c 9.88524,0 18.66625,-4.72086 24.21641,-12.02972 0.17048,0.12188 0.36358,0.21761 0.57745,0.27595 l 3.504721,0.9541 c 3.892996,1.05999 6.279176,4.98061 5.431806,8.92553 l -1.1418,5.31678 c -0.21055,0.98109 0.41382,1.94702 1.3947,2.15777 0.12853,0.0276 0.25706,0.0407 0.38351,0.0407 0.83782,0 1.59113,-0.58326 1.77427,-1.43561 l 1.1418,-5.31678 c 1.25247,-5.83151 -2.27467,-11.6269 -8.029776,-13.19415 l -2.976701,-0.81041 c 1.783821,-3.06204 3.047091,-6.46398 3.670211,-10.08519 0.11877,0.016 0.24045,0.0206 0.36441,0.0127 l 3.624726,-0.24127 c 4.02818,-0.26889 7.56031,2.65984 8.04639,6.66518 l 0.6549,5.39838 c 0.11191,0.92171 0.89554,1.59819 1.80126,1.59819 0.0731,0 0.1468,-0.005 0.22113,-0.0135 0.99604,-0.12085 1.70554,-1.02636 1.58469,-2.0224 l -0.65489,-5.39838 c -0.71842,-5.92122 -5.94156,-10.24777 -11.89434,-9.85305 l -3.343796,0.22259 c 0.026,-0.51578 0.0392,-1.03487 0.0392,-1.55708 v 0 c 0,-3.5857 -0.62291,-7.02564 -1.76305,-10.21974 0.0507,-0.0187 0.10133,-0.039 0.15137,-0.0625 l 3.282126,-1.55645 c 3.6453,-1.729 8.0086,-0.30544 9.9332,3.24123 l 2.59319,4.77983 c 0.3289,0.60651 0.95368,0.95077 1.5984,0.95077 0.29256,0 0.58948,-0.0708 0.8644,-0.2201 0.88121,-0.47902 1.20804,-1.58199 0.72964,-2.46383 z"
     style="opacity:0.3;fill:#20272e;stroke-width:0.207638;enable-background:new" /><g
     id="g1515"
     transform="matrix(0.20763806,0,0,0.20763806,9.764231,253.66718)" /><g
     id="g1517"
     transform="matrix(0.20763806,0,0,0.20763806,9.764231,253.66718)" /><g
     id="g1519"
     transform="matrix(0.20763806,0,0,0.20763806,9.764231,253.66718)" /><g
     id="g1521"
     transform="matrix(0.20763806,0,0,0.20763806,9.764231,253.66718)" /><g
     id="g1523"
     transform="matrix(0.20763806,0,0,0.20763806,9.764231,253.66718)" /><g
     id="g1525"
     transform="matrix(0.20763806,0,0,0.20763806,9.764231,253.66718)" /><g
     id="g1527"
     transform="matrix(0.20763806,0,0,0.20763806,9.764231,253.66718)" /><g
     id="g1529"
     transform="matrix(0.20763806,0,0,0.20763806,9.764231,253.66718)" /><g
     id="g1531"
     transform="matrix(0.20763806,0,0,0.20763806,9.764231,253.66718)" /><g
     id="g1533"
     transform="matrix(0.20763806,0,0,0.20763806,9.764231,253.66718)" /><g
     id="g1535"
     transform="matrix(0.20763806,0,0,0.20763806,9.764231,253.66718)" /><g
     id="g1537"
     transform="matrix(0.20763806,0,0,0.20763806,9.764231,253.66718)" /><g
     id="g1539"
     transform="matrix(0.20763806,0,0,0.20763806,9.764231,253.66718)" /><g
     id="g1541"
     transform="matrix(0.20763806,0,0,0.20763806,9.764231,253.66718)" /><g
     id="g1543"
     transform="matrix(0.20763806,0,0,0.20763806,9.764231,253.66718)" /></g><g
   transform="matrix(0.5736176,0,0,0.5736176,84.326528,-25.045578)"
   id="g1066"><path
     style="fill:#bfa993"
     d="M 373.3,51.377 16.742,407.937 c -12.056,12.056 -12.056,31.603 0,43.66 v 0 c 12.056,12.056 31.603,12.058 43.66,0.001 L 416.96,95.037 Z"
     id="path1008" /><path
     style="fill:#b29a7e"
     d="M 416.96,95.037 395.13,73.207 16.742,451.596 c 12.056,12.056 31.603,12.058 43.66,10e-4 z"
     id="path1010" /><g
     id="g1016">
	
		<rect
   x="331.61801"
   y="183.608"
   transform="matrix(-0.7071,0.7071,-0.7071,-0.7071,868.5974,48.5943)"
   style="fill:#dbdbdb"
   width="185.233"
   height="41.162998"
   id="rect1012" />
	<path
   style="fill:#dbdbdb"
   d="M 387.856,124.145 344.194,80.484 C 310.947,47.236 247.319,44.381 192.177,88.554 l 23.157,23.157 c 27.302,-14.776 62.126,-10.642 85.199,12.432 l 43.66,43.66 c 24.114,24.113 24.114,63.208 0,87.32 L 475.175,124.144 c -24.111,24.113 -63.208,24.114 -87.319,10e-4 z"
   id="path1014" />
</g><path
     style="fill:#ccccce"
     d="m 387.856,124.145 -21.831,-21.83 -43.661,43.66 21.829,21.83 c 24.114,24.113 24.114,63.208 0,87.32 L 475.175,124.146 c -24.111,24.111 -63.208,24.112 -87.319,-0.001 z"
     id="path1018" /><path
     style="fill:#2e2d31"
     d="M 509.739,147.793 480.63,118.686 c -3.013,-3.014 -7.9,-3.013 -10.914,10e-4 l -0.056,0.056 c -10.197,10.168 -23.74,15.769 -38.145,15.769 -11.825,0 -23.066,-3.779 -32.355,-10.755 l 23.259,-23.26 c 3.014,-3.014 3.014,-7.901 0,-10.914 L 378.76,45.923 c -3.014,-3.014 -7.901,-3.014 -10.914,0 l -23.917,23.912 c -17.116,-14.29 -39.814,-22.1 -64.81,-22.1 -31.168,0 -63.759,12.357 -91.768,34.795 -1.713,1.372 -2.761,3.408 -2.881,5.599 -0.12,2.191 0.698,4.329 2.25,5.881 l 23.157,23.157 c 2.414,2.414 6.127,2.954 9.131,1.331 9.34,-5.055 19.924,-7.726 30.609,-7.726 14.57,0 28.391,4.831 39.665,13.706 l -277.998,278 c -15.045,15.047 -15.045,39.53 0,54.575 7.524,7.524 17.405,11.285 27.288,11.285 9.881,0 19.766,-3.762 27.288,-11.285 L 343.804,179.108 c 6.977,9.29 10.756,20.531 10.756,32.355 0,14.431 -5.621,27.999 -15.825,38.204 -3.014,3.014 -3.014,7.901 0,10.914 0.002,0.002 0.003,0.003 0.005,0.004 l 29.104,29.102 c 1.507,1.507 3.482,2.26 5.457,2.26 1.975,0 3.951,-0.753 5.458,-2.261 l 130.98,-130.98 c 1.447,-1.448 2.26,-3.41 2.26,-5.457 10e-4,-2.046 -0.812,-4.008 -2.26,-5.456 z m -136.438,-85.501 32.743,32.745 -18.19,18.192 -3.276,-3.275 -29.472,-29.471 z M 54.946,446.138 c -9.028,9.027 -23.717,9.028 -32.746,0 -9.027,-9.027 -9.027,-23.716 0,-32.745 l 278.333,-278.333 32.743,32.744 z m 294.705,-283.792 -43.66,-43.66 c -15.058,-15.058 -35.078,-23.35 -56.373,-23.35 -11.29,0 -22.495,2.409 -32.735,7.007 L 203.892,89.352 c 23.609,-16.937 50.038,-26.181 75.229,-26.181 23.76,0 44.933,8.087 59.616,22.769 l 43.662,43.661 c 13.12,13.12 30.564,20.345 49.118,20.345 2.463,0 4.905,-0.128 7.319,-0.379 l -69.217,69.217 c 0.251,-2.415 0.379,-4.858 0.379,-7.321 -0.002,-18.553 -7.227,-35.997 -20.347,-49.117 z m 23.65,110.97 -18.194,-18.192 120.066,-120.066 18.194,18.192 z"
     id="path1020" /></g><g
   transform="matrix(0.07944888,0,0,0.07944888,362.93263,189.9228)"
   id="g3294"><path
     style="fill:#ffffff"
     d="m 4,462.376 v -348.76 h 504 v 303.832 c -0.024,24.8 -20.12,44.896 -44.92,44.928 z"
     id="path3100" /><path
     style="fill:#cccccc"
     d="m 504,117.624 v 299.824 c -0.024,22.592 -18.328,40.896 -40.92,40.92 H 8 V 117.624 h 496 m 8,-8 H 0 v 356.752 h 463.08 c 27.016,0 48.92,-21.904 48.92,-48.92 v -0.008 z"
     id="path3102" /><path
     style="fill:#e21b1b"
     d="m 31.92,45.624 h 448.16 c 17.632,0 31.92,14.288 31.92,31.92 v 0 32.184 H 0 V 77.544 C 0,59.912 14.288,45.624 31.92,45.624 Z"
     id="path3104" /><g
     id="g3114">
	<circle
   style="fill:#ffffff"
   cx="44.192001"
   cy="77.671997"
   r="8.9280005"
   id="circle3106" />
	<circle
   style="fill:#ffffff"
   cx="70.968002"
   cy="77.671997"
   r="8.9280005"
   id="circle3108" />
	<circle
   style="fill:#ffffff"
   cx="97.736"
   cy="77.671997"
   r="8.9280005"
   id="circle3110" />
	<polygon
   style="fill:#ffffff"
   points="460.928,62.008 460.928,93.352 143.088,93.352 159.088,62.008 "
   id="polygon3112" />
</g><g
     id="g3124">
	<path
   style="fill:#999999"
   d="m 171.92,71.4 1.312,5.696 c 0.28,1.336 0.56,2.704 0.8,4.072 h 0.048 c 0.256,-1.368 0.672,-2.76 1.032,-4.048 l 1.6,-5.72 h 2.576 l 1.6,5.6 c 0.384,1.464 0.72,2.832 1,4.192 h 0.056 c 0.2,-1.368 0.496,-2.736 0.8,-4.192 l 1.392,-5.6 h 3.112 l -3.936,12.544 h -2.936 L 178.88,78.84 c -0.384,-1.312 -0.704,-2.648 -0.952,-4 h -0.056 c -0.232,1.352 -0.552,2.688 -0.952,4 l -1.6,5.104 h -2.96 L 168.648,71.4 Z"
   id="path3116" />
	<path
   style="fill:#999999"
   d="m 192.272,71.4 1.312,5.696 c 0.28,1.336 0.56,2.704 0.8,4.072 h 0.016 c 0.248,-1.368 0.664,-2.76 1.024,-4.048 l 1.6,-5.72 h 2.576 l 1.6,5.6 c 0.384,1.464 0.72,2.832 1,4.192 h 0.056 c 0.2,-1.368 0.496,-2.736 0.8,-4.192 l 1.392,-5.6 h 3.12 l -3.944,12.544 h -2.936 l -1.496,-5.104 c -0.384,-1.312 -0.704,-2.648 -0.952,-4 v 0 c -0.232,1.352 -0.552,2.688 -0.952,4 l -1.6,5.104 h -2.96 L 189.016,71.4 Z"
   id="path3118" />
	<path
   style="fill:#999999"
   d="m 212.624,71.4 1.312,5.696 c 0.28,1.336 0.56,2.704 0.8,4.072 h 0.048 c 0.256,-1.368 0.672,-2.76 1.032,-4.048 l 1.6,-5.72 H 220 l 1.6,5.6 c 0.384,1.464 0.72,2.832 1,4.192 h 0.056 c 0.2,-1.368 0.496,-2.736 0.8,-4.192 l 1.392,-5.6 H 228 l -4,12.544 h -2.936 L 219.6,78.848 c -0.384,-1.312 -0.704,-2.648 -0.952,-4 h -0.056 c -0.232,1.352 -0.552,2.688 -0.952,4 l -1.6,5.104 h -2.96 l -3.712,-12.544 z"
   id="path3120" />
	<path
   style="fill:#999999"
   d="m 229.136,82.2 c -0.056,-1.064 0.76,-1.976 1.832,-2.04 0.04,0 0.088,0 0.128,0 1.128,0.072 1.976,1.04 1.912,2.16 -0.064,1.024 -0.88,1.84 -1.912,1.912 -1.064,0.016 -1.944,-0.832 -1.96,-1.896 0,-0.04 0,-0.088 0,-0.136 z"
   id="path3122" />
</g><rect
     x="422.82401"
     y="75.671997"
     width="21.559999"
     height="4"
     id="rect3126" /><polygon
     points="435.416,69.592 438.24,66.76 449.16,77.672 438.24,88.592 435.416,85.76 443.504,77.672 "
     id="polygon3128" /><path
     d="m 132.648,168.28 h 289.8 v 0 71.648 c 0,23.808 -19.296,43.104 -43.104,43.104 v 0 H 89.552 v 0 -71.648 c 0,-23.8 19.296,-43.096 43.096,-43.104 z"
     id="path3130" /><g
     id="g3138">
	<path
   style="fill:#ffffff"
   d="M 180.648,257.064 178.4,198.24 h 12.64 l 0.088,26.184 c -0.088,7.072 -0.168,13.792 -0.352,19.024 h 0.176 c 2.008,-5.76 4.184,-11.696 6.888,-18.848 l 10.56,-26.36 h 13.792 l -0.168,26.272 c -0.088,7.072 -0.264,12.912 -0.52,18.68 h 0.168 c 2.008,-6.112 4.184,-12.488 6.464,-18.768 l 10.208,-26.184 h 13.176 l -25.92,58.824 h -13.704 l -0.44,-24.176 c 0,-6.888 0.168,-12.8 0.52,-19.464 h -0.168 c -2.184,6.288 -4.192,12.568 -7.16,19.816 l -10.04,23.832 z"
   id="path3132" />
	<path
   style="fill:#ffffff"
   d="m 285.64,232.104 h -20.952 l -2.704,14.224 h 23.48 l -2.008,10.736 h -36.048 l 11.2,-58.832 h 34.832 l -2.096,10.744 h -22.2 l -2.448,12.56 h 20.952 z"
   id="path3134" />
	<path
   style="fill:#ffffff"
   d="m 303.44,199.2 c 5.096,-0.928 10.264,-1.392 15.448,-1.392 5.056,-0.336 10.104,0.76 14.576,3.144 4.152,1.96 6.8,6.144 6.808,10.736 -0.256,6.832 -5.16,12.608 -11.864,13.96 v 0.264 c 5.68,1.6 9.512,6.904 9.248,12.8 -0.048,5.728 -3.08,11.016 -8,13.96 -6.784,3.656 -14.48,5.296 -22.168,4.72 -4.968,0.104 -9.936,-0.248 -14.84,-1.048 z m 3.144,48.176 c 1.592,0.184 3.2,0.264 4.8,0.256 6.816,0 13.008,-2.704 13.008,-9.248 0,-5.84 -4.888,-7.592 -10.736,-7.592 h -3.928 z m 5.064,-25.752 h 4.184 c 6.896,0 11.608,-2.96 11.608,-7.936 0,-4.28 -3.496,-6.112 -8.288,-6.112 -1.64,-0.048 -3.28,0.104 -4.888,0.44 z"
   id="path3136" />
</g><rect
     x="-61.99461"
     y="446.35745"
     transform="rotate(-45)"
     style="fill:#999999;stroke-width:0.99999"
     width="30.039713"
     height="69.526337"
     id="rect3140" /><polygon
     points="249.608,380.888 235.872,303.64 313.12,317.368 "
     id="polygon3142" /><g
     id="g3144">
</g><g
     id="g3146">
</g><g
     id="g3148">
</g><g
     id="g3150">
</g><g
     id="g3152">
</g><g
     id="g3154">
</g><g
     id="g3156">
</g><g
     id="g3158">
</g><g
     id="g3160">
</g><g
     id="g3162">
</g><g
     id="g3164">
</g><g
     id="g3166">
</g><g
     id="g3168">
</g><g
     id="g3170">
</g><g
     id="g3172">
</g></g></svg>
