<?xml version="1.0" encoding="UTF-8" standalone="no"?>
<svg
   xmlns:dc="http://purl.org/dc/elements/1.1/"
   xmlns:cc="http://creativecommons.org/ns#"
   xmlns:rdf="http://www.w3.org/1999/02/22-rdf-syntax-ns#"
   xmlns:svg="http://www.w3.org/2000/svg"
   xmlns="http://www.w3.org/2000/svg"
   xmlns:sodipodi="http://sodipodi.sourceforge.net/DTD/sodipodi-0.dtd"
   xmlns:inkscape="http://www.inkscape.org/namespaces/inkscape"
   inkscape:version="1.0 (4035a4fb49, 2020-05-01)"
   sodipodi:docname="robot-map.svg"
   id="svg3320"
   version="1.1"
   viewBox="0 0 105.38167 103.39469"
   height="103.39469mm"
   width="105.38167mm">
  <defs
     id="defs3314">
    <filter
       height="1.0326791"
       y="-8.7741363e-08"
       width="1.0714251"
       x="-1.2142868e-08"
       id="filter4448"
       style="color-interpolation-filters:sRGB"
       inkscape:collect="always">
      <feGaussianBlur
         id="feGaussianBlur4450"
         stdDeviation="1.1297592e-07"
         inkscape:collect="always" />
    </filter>
  </defs>
  <sodipodi:namedview
     inkscape:window-maximized="1"
     inkscape:window-y="0"
     inkscape:window-x="0"
     inkscape:window-height="1040"
     inkscape:window-width="1920"
     inkscape:snap-text-baseline="false"
     showgrid="false"
     inkscape:document-rotation="0"
     inkscape:current-layer="layer1"
     inkscape:document-units="mm"
     inkscape:cy="487.69296"
     inkscape:cx="582.80145"
     inkscape:zoom="0.66933741"
     inkscape:pageshadow="2"
     inkscape:pageopacity="0.0"
     borderopacity="1.0"
     bordercolor="#666666"
     pagecolor="#ffffff"
     id="base" />
  <metadata
     id="metadata3317">
    <rdf:RDF>
      <cc:Work
         rdf:about="">
        <dc:format>image/svg+xml</dc:format>
        <dc:type
           rdf:resource="http://purl.org/dc/dcmitype/StillImage" />
      </cc:Work>
    </rdf:RDF>
  </metadata>
  <g
     transform="translate(-41.128837,-12.176465)"
     id="layer1"
     inkscape:groupmode="layer"
     inkscape:label="Layer 1">
    <g
       transform="matrix(0.16305394,0,0,0.14801327,34.603582,39.788359)"
       id="g4014">
	<rect
   id="rect4006"
   height="24.011"
   width="48.021999"
   style="fill:#77aad4"
   y="352.039"
   x="183.963" />

	<rect
   id="rect4008"
   height="24.011"
   width="48.021999"
   style="fill:#77aad4"
   y="352.039"
   x="280.01199" />

	<rect
   id="rect4010"
   height="56.026001"
   width="24.011"
   style="fill:#77aad4"
   y="167.961"
   x="320.026" />

	<rect
   id="rect4012"
   height="56.026001"
   width="24.011"
   style="fill:#77aad4"
   y="167.961"
   x="167.961" />

</g>
    <g
       transform="matrix(0.16305394,0,0,0.14801327,34.603582,39.788359)"
       id="g4020">
	<path
   id="path4016"
   d="m 239.992,504.115 c 0,-17.681 -14.334,-32.014 -32.015,-32.014 -17.68,0 -32.014,14.333 -32.014,32.014 z"
   style="fill:#1d71b8" />

	<path
   id="path4018"
   d="m 337.017,504.115 c 0,-17.681 -14.335,-32.014 -32.015,-32.014 -17.681,0 -32.015,14.333 -32.015,32.014 z"
   style="fill:#1d71b8" />

</g>
    <g
       transform="matrix(0.16305394,0,0,0.14801327,34.603582,39.788359)"
       id="g4026">
	<rect
   id="rect4022"
   height="176.078"
   width="128.063"
   style="fill:#fac15c"
   y="175.96201"
   x="191.974" />

	<rect
   id="rect4024"
   height="136.064"
   width="80.038002"
   style="fill:#fac15c"
   y="7.8850002"
   x="215.98599" />

</g>
    <g
       transform="matrix(0.16305394,0,0,0.14801327,34.603582,39.788359)"
       id="g4032">
	<rect
   id="rect4028"
   height="136.064"
   width="40.014"
   style="fill:#f9b233"
   y="7.8850002"
   x="256" />

	<rect
   id="rect4030"
   height="176.078"
   width="64.028999"
   style="fill:#f9b233"
   y="175.96201"
   x="256" />

</g>
    <ellipse
       ry="3.5539465"
       rx="3.9150879"
       id="circle4034"
       cy="74.125664"
       cx="76.34539"
       style="fill:#ffffff;stroke-width:0.155351" />
    <polygon
       transform="matrix(0.16305394,0,0,0.14801327,34.603582,39.788359)"
       style="fill:#1d1d1b"
       points="160.074,223.986 175.844,223.986 175.844,167.959 160.074,167.959 160.074,184.086 151.952,184.086 151.952,199.856 160.074,199.856 "
       id="polygon4036" />
    <path
       style="fill:#1d1d1b;stroke-width:0.155351"
       d="m 48.920207,81.3308 h -2.571361 v -4.496793 h 2.571361 z m 0.205447,-6.462854 -2.504019,-0.53033 c 0.429647,-1.671066 1.357587,-3.207302 2.683379,-4.442915 l 1.841857,1.62874 c -0.999195,0.931004 -1.698044,2.087578 -2.021217,3.344505 z m 3.693335,-4.531426 -1.296442,-2.015938 c 1.586678,-0.840568 3.401305,-1.28505 5.247239,-1.28505 h 0.133052 v 2.334169 h -0.133052 c -1.391176,0 -2.757242,0.334215 -3.950797,0.966819 z"
       id="path4038" />
    <path
       style="fill:#1d1d1b;stroke-width:0.155351"
       d="m 48.920207,84.921455 v -1.318503 h -2.571361 v 1.318503 c -2.973615,0.543354 -5.220009,2.932588 -5.220009,5.789535 h 2.571361 c 0,-1.969461 1.765059,-3.571556 3.934329,-3.571556 2.169595,0 3.934491,1.602241 3.934491,3.571556 h 2.57136 c 1.64e-4,-2.856947 -2.246557,-5.246181 -5.220171,-5.789535 z"
       id="path4040" />
    <polygon
       transform="matrix(0.16305394,0,0,0.14801327,34.603582,39.788359)"
       style="fill:#1d1d1b"
       points="351.926,223.986 351.926,199.856 360.048,199.856 360.048,184.086 351.926,184.086 351.926,167.959 336.156,167.959 336.156,223.986 "
       id="polygon4042" />
    <path
       style="fill:#1d1d1b;stroke-width:0.152213"
       d="m 103.44004,82.351686 -2.36413,-0.644721 1.42529,-4.306646 2.36411,0.64472 z m -0.50458,-6.885803 c 0.10131,-1.284949 -0.17467,-2.5677 -0.79814,-3.709684 l 2.20964,-1.098052 c 0.82735,1.515637 1.19359,3.219575 1.0589,4.927849 z m -1.95941,-5.265845 c -0.89689,-0.904974 -2.047172,-1.567792 -3.32608,-1.916563 l -0.122323,-0.03334 0.739822,-2.235471 0.122329,0.03334 c 1.697462,0.462915 3.224702,1.343364 4.417032,2.546358 z"
       id="path4044" />
    <path
       style="fill:#1d1d1b;stroke-width:0.155351"
       d="m 96.219146,82.3908 1.174993,0.775111 1.511641,-1.888228 -1.174993,-0.775116 c 1.263896,-2.503042 0.455409,-5.557331 -2.090574,-7.236856 l -1.511635,1.888234 c 1.755097,1.157792 2.145182,3.395764 0.869824,4.988848 -1.275352,1.593077 -3.740734,1.947179 -5.495702,0.78947 l -1.511635,1.888234 c 2.545885,1.679648 5.995759,1.434499 8.228081,-0.429697 z"
       id="path4046" />
    <g
       transform="matrix(0.16305394,0,0,0.14801327,34.603582,39.788359)"
       id="g4056">
	<rect
   id="rect4050"
   height="15.77"
   width="32.014"
   style="fill:#ffffff"
   y="112.051"
   x="239.98801" />

	<rect
   id="rect4052"
   height="32.014"
   width="15.77"
   style="fill:#ffffff"
   y="31.896"
   x="232.103" />

	<rect
   id="rect4054"
   height="32.014"
   width="15.77"
   style="fill:#ffffff"
   y="31.896"
   x="264.12701" />

</g>
    <g
       transform="matrix(0.16305394,0,0,0.14801327,34.603582,39.788359)"
       id="g4072">
	<rect
   id="rect4058"
   height="32.014"
   width="15.77"
   style="fill:#1d1d1b"
   y="408.07599"
   x="200.09" />

	<polygon
   id="polygon4060"
   points="215.862,392.063 215.862,383.94 231.989,383.94 231.989,368.17 183.967,368.17 183.967,383.94 200.092,383.94 200.092,392.063 "
   style="fill:#1d1d1b" />

	<polygon
   id="polygon4062"
   points="296.138,383.94 296.138,392.063 311.908,392.063 311.908,383.94 328.033,383.94 328.033,368.17 280.011,368.17 280.011,383.94 "
   style="fill:#1d1d1b" />

	<rect
   id="rect4064"
   height="32.014"
   width="15.77"
   style="fill:#1d1d1b"
   y="408.07599"
   x="296.14001" />

	<path
   id="path4066"
   d="m 215.862,465.002 v -8.91 h -15.77 v 8.91 c -18.238,3.669 -32.014,19.811 -32.014,39.113 V 512 h 79.799 v -7.885 c 0,-19.301 -13.777,-35.444 -32.015,-39.113 z m -30.691,31.228 c 3.275,-9.444 12.262,-16.244 22.807,-16.244 10.545,0 19.533,6.8 22.808,16.244 z"
   style="fill:#1d1d1b" />

	<path
   id="path4068"
   d="m 311.908,465.002 v -8.91 h -15.77 v 8.91 c -18.238,3.669 -32.015,19.811 -32.015,39.113 V 512 h 79.799 v -7.885 c 0,-19.301 -13.778,-35.444 -32.014,-39.113 z m -30.694,31.228 c 3.275,-9.444 12.263,-16.244 22.808,-16.244 10.545,0 19.532,6.8 22.807,16.244 z"
   style="fill:#1d1d1b" />

	<path
   id="path4070"
   d="M 303.903,151.833 V 39.781 h 24.129 V 24.011 H 303.903 V 0 h -95.807 v 24.011 h -24.129 v 15.77 h 24.129 v 112.051 h 40.019 v 16.245 h -64.029 v 191.851 h 143.83 v -191.85 h -64.03 V 151.833 Z M 256,248.115 c -8.892,0 -16.126,-7.234 -16.126,-16.126 0,-8.892 7.234,-16.126 16.126,-16.126 8.892,0 16.126,7.234 16.126,16.126 0,8.892 -7.234,16.126 -16.126,16.126 z m 56.144,96.044 h -48.259 v -81.262 c 13.786,-3.52 24.011,-16.042 24.011,-30.908 0,-17.588 -14.309,-31.896 -31.896,-31.896 -17.587,0 -31.896,14.309 -31.896,31.896 0,14.867 10.225,27.389 24.011,30.908 v 81.262 H 199.856 V 183.848 h 112.29 V 344.159 Z M 223.867,15.77 h 64.267 v 120.293 h -64.267 z"
   style="fill:#1d1d1b" />

</g>
    <g
       transform="matrix(0.16305394,0,0,0.14801327,34.603582,39.788359)"
       id="g4074">
</g>
    <g
       transform="matrix(0.16305394,0,0,0.14801327,34.603582,39.788359)"
       id="g4076">
</g>
    <g
       transform="matrix(0.16305394,0,0,0.14801327,34.603582,39.788359)"
       id="g4078">
</g>
    <g
       transform="matrix(0.16305394,0,0,0.14801327,34.603582,39.788359)"
       id="g4080">
</g>
    <g
       transform="matrix(0.16305394,0,0,0.14801327,34.603582,39.788359)"
       id="g4082">
</g>
    <g
       transform="matrix(0.16305394,0,0,0.14801327,34.603582,39.788359)"
       id="g4084">
</g>
    <g
       transform="matrix(0.16305394,0,0,0.14801327,34.603582,39.788359)"
       id="g4086">
</g>
    <g
       transform="matrix(0.16305394,0,0,0.14801327,34.603582,39.788359)"
       id="g4088">
</g>
    <g
       transform="matrix(0.16305394,0,0,0.14801327,34.603582,39.788359)"
       id="g4090">
</g>
    <g
       transform="matrix(0.16305394,0,0,0.14801327,34.603582,39.788359)"
       id="g4092">
</g>
    <g
       transform="matrix(0.16305394,0,0,0.14801327,34.603582,39.788359)"
       id="g4094">
</g>
    <g
       transform="matrix(0.16305394,0,0,0.14801327,34.603582,39.788359)"
       id="g4096">
</g>
    <g
       transform="matrix(0.16305394,0,0,0.14801327,34.603582,39.788359)"
       id="g4098">
</g>
    <g
       transform="matrix(0.16305394,0,0,0.14801327,34.603582,39.788359)"
       id="g4100">
</g>
    <g
       transform="matrix(0.16305394,0,0,0.14801327,34.603582,39.788359)"
       id="g4102">
</g>
    <g
       transform="matrix(0.11781882,0,0,0.1069508,61.131414,52.691173)"
       id="g4319">
      <g
         id="g4255">
	<path
   style="fill:#26a6d1"
   d="M 0.031,0.07 69.784,26.323 140.097,0.07 210.06,26.323 280.067,0.07 V 253.845 L 209.885,280.098 139.834,253.845 69.906,280.098 0.039,253.845 V 0.07 Z"
   id="path4237" />

	<polygon
   style="fill:#2295bc"
   points="139.834,253.784 140.044,253.862 140.044,0.026 70.037,26.165 70.037,279.984 "
   id="polygon4239" />

	<polygon
   style="fill:#2295bc"
   points="280.067,0.009 210.06,26.261 210.06,279.966 280.067,253.784 "
   id="polygon4241" />

	<path
   style="fill:#efc75e"
   d="M 210.06,26.261 140.097,0.009 113.17,10.055 c -45.321,52.19 -28.397,96.058 31.678,150.48 50.676,45.898 103.059,72.763 135.209,49.486 V 0 c 10e-4,0 -69.997,26.261 -69.997,26.261 z"
   id="path4243" />

	<path
   style="fill:#3db39e"
   d="M 280.067,0.009 210.06,26.261 140.097,0.009 140.001,0.044 c -62.367,52.864 -31.809,83.107 22.682,133.267 44.008,40.525 79.239,64.056 117.384,41.724 -0.394,-17.467 0,-174.93 0,-175.026 z"
   id="path4245" />

	<path
   style="fill:#d7b354"
   d="M 210.06,26.261 V 207.01 c 27.163,13.293 51.823,16.189 70.007,3.019 V 0.009 Z"
   id="path4247" />

	<path
   style="fill:#d7b354"
   d="M 140.044,0.026 125.308,5.53 113.171,10.063 C 69.11,60.792 84.004,103.688 140.045,156.027 140.044,156.028 140.044,0.026 140.044,0.026 Z"
   id="path4249" />

	<path
   style="fill:#37a18e"
   d="M 280.067,0.009 210.06,26.261 v 144.485 c 24.056,14.351 46.485,18.053 70.007,4.279 -0.394,-17.457 0,-174.92 0,-175.016 z"
   id="path4251" />

	<path
   style="fill:#37a18e"
   d="M 140.044,0.026 140.018,0.035 140,0.044 c -53.03,44.944 -38.863,73.542 0.044,111.923 0,0 0,-111.941 0,-111.941 z"
   id="path4253" />

</g>
      <g
         id="g4257">
</g>
      <g
         id="g4259">
</g>
      <g
         id="g4261">
</g>
      <g
         id="g4263">
</g>
      <g
         id="g4265">
</g>
      <g
         id="g4267">
</g>
      <g
         id="g4269">
</g>
      <g
         id="g4271">
</g>
      <g
         id="g4273">
</g>
      <g
         id="g4275">
</g>
      <g
         id="g4277">
</g>
      <g
         id="g4279">
</g>
      <g
         id="g4281">
</g>
      <g
         id="g4283">
</g>
      <g
         id="g4285">
</g>
    </g>
    <text
       transform="matrix(0.34950418,0,0,0.48673805,68.453277,4.6788295)"
       id="text4378"
       y="43.877342"
       x="97.636978"
       style="font-style:normal;font-variant:normal;font-weight:normal;font-stretch:normal;font-size:10.5833px;line-height:1.25;font-family:sans-serif;-inkscape-font-specification:'sans-serif, Normal';font-variant-ligatures:normal;font-variant-caps:normal;font-variant-numeric:normal;font-variant-east-asian:normal;letter-spacing:0px;word-spacing:0px;fill:#000000;fill-opacity:1;stroke:none;stroke-width:0.264583;filter:url(#filter4448)"
       xml:space="preserve"><tspan
         id="tspan4456"
         style="font-style:normal;font-variant:normal;font-weight:normal;font-stretch:normal;font-size:10.5833px;font-family:sans-serif;-inkscape-font-specification:'sans-serif, Normal';font-variant-ligatures:normal;font-variant-caps:normal;font-variant-numeric:normal;font-variant-east-asian:normal;stroke-width:0.264583"
         y="43.877342"
         x="97.636978"
         sodipodi:role="line">So that's where all </tspan><tspan
         id="tspan4770"
         style="font-style:normal;font-variant:normal;font-weight:normal;font-stretch:normal;font-size:10.5833px;font-family:sans-serif;-inkscape-font-specification:'sans-serif, Normal';font-variant-ligatures:normal;font-variant-caps:normal;font-variant-numeric:normal;font-variant-east-asian:normal;stroke-width:0.264583"
         y="57.106468"
         x="97.636978"
         sodipodi:role="line">of the humans are!</tspan></text>
    <g
       transform="matrix(0.58114185,0,0,0.55942024,-32.649771,-24.290387)"
       id="g4766">
      <path
         id="path4525"
         style="stroke:none;stroke-width:2.11004;stroke-opacity:1"
         d="m 279.93359,65.191406 c -5.60262,0.119735 -11.22351,1.320121 -16.24218,3.855469 -5.98598,-2.074074 -12.46904,-2.941906 -18.75509,-2.256204 -5.36729,0.587681 -10.68904,2.2577 -15.2039,5.262063 -2.84304,1.970032 -5.38056,4.9677 -5.54101,8.56836 -0.0899,0.868874 0.21428,1.708899 0.26757,2.55664 -0.11934,1.137081 -1.39504,1.438998 -2.32624,1.609286 -4.11859,1.137293 -8.36617,2.884241 -11.45924,6.034981 -2.34587,2.28343 -3.93915,5.797417 -2.90923,9.065604 1.22302,3.905115 4.65534,6.605685 8.17296,8.396085 5.16527,2.58307 10.92412,3.60041 16.67019,3.69092 4.31481,3.85924 9.93423,6.15047 15.49916,7.09183 5.62161,0.90611 11.40189,0.7942 17.01296,-0.35186 3.37216,-0.71543 6.74444,-1.96524 9.72378,-3.6399 0.70001,-0.46698 1.47793,-0.86566 2.34897,-0.72962 5.72789,0.71684 11.64084,0.496 17.20857,-1.11799 4.32661,-1.28543 8.41443,-3.40661 11.54445,-6.70754 2.72269,-2.85009 3.197,-7.811903 0.77344,-11.052733 -1.25936,-1.631677 -2.71167,-2.954978 -4.44867,-4.141634 -1.04346,-0.72768 -2.13766,-1.377452 -3.2193,-2.045866 3.06675,-1.657677 5.90962,-4.220197 6.84509,-7.689618 0.88981,-2.70892 0.06,-5.786976 -1.87536,-7.838898 -3.66969,-4.395918 -9.26169,-6.690415 -14.77095,-7.735826 -3.09814,-0.618913 -6.16029,-0.865489 -9.31597,-0.823549 z m 1.28907,0.947266 c 6.17833,0.0024 12.62737,1.516069 17.45703,5.544922 2.48656,1.873222 4.30205,4.895689 4.0256,8.087799 -0.16807,3.91284 -2.86648,7.443202 -6.35959,9.066498 -0.48029,0.193369 -0.97672,0.349086 -1.48632,0.443359 3.7347,1.426763 7.42992,3.795573 9.14958,7.545037 1.20614,2.610562 1.0691,5.795533 -0.47039,8.242193 -2.1736,3.75983 -6.23628,5.92171 -10.24796,7.20288 -5.18613,1.66856 -10.77801,1.9502 -16.13241,0.99817 -1.56174,-0.20414 -3.35407,-0.19514 -4.56058,0.97326 -1.70431,1.38334 -3.79795,2.15324 -5.83715,2.8978 -6.83423,2.31331 -14.30829,1.98316 -21.22268,0.19379 -3.65035,-0.88863 -7.33224,-2.50184 -9.67451,-5.56094 -0.71428,-0.89809 -1.31214,-1.88801 -1.77539,-2.9375 -0.33705,1.49809 -1.86786,2.44008 -3.35623,2.30966 -1.17418,-0.0797 -2.29662,-0.46776 -3.47087,-0.57447 -4.84622,-0.79515 -9.84018,-2.42649 -13.30571,-6.07699 -2.14764,-2.24115 -3.59469,-5.475619 -2.79766,-8.600317 0.87451,-3.857365 4.05173,-6.722132 7.47066,-8.431013 2.23166,-1.234942 4.72087,-1.884759 7.21743,-2.317472 0.80437,-0.175676 1.71297,-0.393 2.45332,-0.936354 0.0469,-0.97796 -0.65945,-1.842851 -0.55166,-2.844227 -0.25687,-3.63935 2.01087,-6.993717 4.88703,-9.026303 4.18212,-3.088696 9.42473,-4.344496 14.53267,-4.733324 5.48737,-0.357369 11.043,0.610684 16.12219,2.705417 4.03114,-0.305321 7.2266,-3.392043 11.26451,-3.700553 2.21231,-0.270193 4.44059,-0.432104 6.66909,-0.471322 z m -47.29102,36.638668 c 0.041,0.0466 0.16336,-0.10395 0,0 z" />
      <path
         id="path4527"
         style="stroke-width:1.33216"
         d="m 218.875,116.34375 c -2.24498,0.15216 -4.8026,1.0228 -5.75391,3.25195 -0.52515,1.81014 1.01676,3.45806 2.61374,4.03859 3.00772,1.3276 6.87526,1.02882 9.36087,-1.22804 1.02483,-1.02531 1.22074,-2.86873 0.0944,-3.89982 -1.53926,-1.78019 -4.07268,-2.24407 -6.31508,-2.16268 z m 0.61914,1.07422 c 1.72646,-0.0243 3.85101,0.79963 4.2164,2.67742 0.18351,1.71333 -1.57792,2.92024 -3.07067,3.11378 -1.93885,0.40033 -4.37907,-0.18723 -5.27854,-2.11347 -0.49566,-1.53731 0.81883,-3.00752 2.25195,-3.37304 0.60463,-0.20541 1.24325,-0.29984 1.88086,-0.30469 z" />
      <path
         id="path4529"
         style="stroke-width:1.19472"
         d="m 207.5918,125.07031 c 0.0718,0.19217 0.0804,0.41964 -0.63067,0.43369 -0.34664,0.0163 -0.1477,-0.44345 -0.73066,-0.0255 -1.14482,0.49715 -1.94678,1.97795 -1.1875,3.11523 0.36412,0.60831 0.98496,1.02702 1.64453,1.25781 0.14594,-0.40678 0.99313,0.0777 0.79322,0.19549 0.52605,-0.17068 1.05874,-0.023 1.60326,-0.0295 -0.57151,-0.32866 0.18884,-0.46685 0.73284,-0.62284 -0.11324,0.46004 0.181,0.40291 0.5738,0.0994 1.07685,-0.59362 1.62538,-2.1479 0.76114,-3.14602 -0.32873,-0.45088 -0.80861,-0.77951 -1.32364,-0.98484 0.13793,0.58328 -1.28638,-0.0699 -0.66223,-0.2104 -0.54613,-0.0234 -1.02376,0.14031 -1.57409,-0.0826 z m 1.11328,1.06641 c 1.08632,0.19003 1.69531,1.74339 0.75195,2.47266 -0.44101,0.19278 -1.00178,0.73476 -1.40452,0.59997 -0.51705,-0.31577 -1.25582,-0.39636 -1.50861,-1.0638 -0.53906,-0.91465 0.36248,-1.94974 1.29399,-2.04008 0.40184,-0.31672 0.49081,-0.36598 0.86719,0.0312 z" />
    </g>
    <g
       transform="matrix(1.5889726,0,0,0.96598678,130.41393,43.234121)"
       id="g4537">
</g>
    <g
       transform="matrix(1.5889726,0,0,0.96598678,130.41393,43.234121)"
       id="g4539">
</g>
    <g
       transform="matrix(1.5889726,0,0,0.96598678,130.41393,43.234121)"
       id="g4541">
</g>
    <g
       transform="matrix(1.5889726,0,0,0.96598678,130.41393,43.234121)"
       id="g4543">
</g>
    <g
       transform="matrix(1.5889726,0,0,0.96598678,130.41393,43.234121)"
       id="g4545">
</g>
    <g
       transform="matrix(1.5889726,0,0,0.96598678,130.41393,43.234121)"
       id="g4547">
</g>
    <g
       transform="matrix(1.5889726,0,0,0.96598678,130.41393,43.234121)"
       id="g4549">
</g>
    <g
       transform="matrix(1.5889726,0,0,0.96598678,130.41393,43.234121)"
       id="g4551">
</g>
    <g
       transform="matrix(1.5889726,0,0,0.96598678,130.41393,43.234121)"
       id="g4553">
</g>
    <g
       transform="matrix(1.5889726,0,0,0.96598678,130.41393,43.234121)"
       id="g4555">
</g>
    <g
       transform="matrix(1.5889726,0,0,0.96598678,130.41393,43.234121)"
       id="g4557">
</g>
    <g
       transform="matrix(1.5889726,0,0,0.96598678,130.41393,43.234121)"
       id="g4559">
</g>
    <g
       transform="matrix(1.5889726,0,0,0.96598678,130.41393,43.234121)"
       id="g4561">
</g>
    <g
       transform="matrix(1.5889726,0,0,0.96598678,130.41393,43.234121)"
       id="g4563">
</g>
    <g
       transform="matrix(1.5889726,0,0,0.96598678,130.41393,43.234121)"
       id="g4565">
</g>
  </g>
</svg>
