<?xml version="1.0" encoding="UTF-8" standalone="no"?>
<svg
   xmlns:dc="http://purl.org/dc/elements/1.1/"
   xmlns:cc="http://creativecommons.org/ns#"
   xmlns:rdf="http://www.w3.org/1999/02/22-rdf-syntax-ns#"
   xmlns:svg="http://www.w3.org/2000/svg"
   xmlns="http://www.w3.org/2000/svg"
   xmlns:sodipodi="http://sodipodi.sourceforge.net/DTD/sodipodi-0.dtd"
   xmlns:inkscape="http://www.inkscape.org/namespaces/inkscape"
   sodipodi:docname="whip-search-engines.svg"
   inkscape:version="1.0 (4035a4fb49, 2020-05-01)"
   id="svg8"
   version="1.1"
   viewBox="0 0 149.49538 81.650414"
   height="81.650414mm"
   width="149.49538mm">
  <defs
     id="defs2" />
  <sodipodi:namedview
     inkscape:window-maximized="1"
     inkscape:window-y="0"
     inkscape:window-x="0"
     inkscape:window-height="1040"
     inkscape:window-width="1920"
     showgrid="false"
     inkscape:document-rotation="0"
     inkscape:current-layer="layer1"
     inkscape:document-units="mm"
     inkscape:cy="168.22592"
     inkscape:cx="-22.429667"
     inkscape:zoom="0.62206018"
     inkscape:pageshadow="2"
     inkscape:pageopacity="0.0"
     borderopacity="1.0"
     bordercolor="#666666"
     pagecolor="#ffffff"
     id="base" />
  <metadata
     id="metadata5">
    <rdf:RDF>
      <cc:Work
         rdf:about="">
        <dc:format>image/svg+xml</dc:format>
        <dc:type
           rdf:resource="http://purl.org/dc/dcmitype/StillImage" />
        <dc:title></dc:title>
      </cc:Work>
    </rdf:RDF>
  </metadata>
  <g
     transform="translate(-23.390616,-112.71372)"
     id="layer1"
     inkscape:groupmode="layer"
     inkscape:label="Layer 1">
    <g
       transform="matrix(0.26458333,0,0,0.26458333,99.599062,112.71213)"
       id="g1135">
      <path
         d="m 268.968,292.562 h -50.077 l -0.06,16.044 h 50.137 c 4.43,0 8.022,-3.592 8.022,-8.022 0,-4.43 -3.591,-8.022 -8.022,-8.022 z"
         id="path1127" />
      <path
         d="m 221.251,173.246 c 4.43,0 8.022,-3.592 8.022,-8.022 0,-4.43 -3.592,-8.022 -8.022,-8.022 h -27.077 c -4.256,6.053 -11.252,9.841 -18.904,9.841 -1.81,0 -3.603,-0.224 -5.358,-0.644 0.57,3.872 3.896,6.846 7.926,6.846 5.44,0 1.51,0 13.684,0 v 123.683 c 0,4.43 3.592,8.022 8.022,8.022 4.43,0 8.022,-3.592 8.022,-8.022 V 173.246 c 12.169,0 8.263,0 13.685,0 z"
         id="path1129" />
      <path
         d="m 159.907,278.832 v -75.386 c 0,-2.192 -0.509,-4.354 -1.487,-6.315 l -18.681,-37.478 0.89,-3.277 -17.467,-6.059 c -9.918,-3.441 -15.039,-12.831 -15.167,-18.648 l 1.677,-37.614 9.645,37.365 c 0.988,3.826 3.824,6.902 7.556,8.197 l 44.528,15.447 c 6.15,2.134 12.875,-1.12 15.012,-7.279 2.135,-6.156 -1.123,-12.876 -7.279,-15.012 l -38.551,-13.373 -8.742,-33.866 16.536,24.583 4.406,1.528 7.305,-26.887 C 162.635,75.383 157.1,65.719 147.726,63.172 l -30.27,-8.224 c -9.374,-2.547 -19.039,2.988 -21.586,12.362 0,0 -15.335,57.694 -23.073,84.92 -1.078,3.792 -1.764,7.834 -0.003,11.704 l 19.313,42.425 -24.326,67.684 c -2.644,7.357 1.177,15.466 8.534,18.11 0.452,0.163 0.908,0.294 1.364,0.408 H 39.637 c -4.43,0 -8.022,3.592 -8.022,8.022 0,4.43 3.592,8.022 8.022,8.022 h 140.501 v -16.044 h -30.996 c 6.177,-1.52 10.765,-7.082 10.765,-13.729 z m -75.379,13.73 c 4.427,-1.108 8.24,-4.326 9.899,-8.943 l 26.272,-73.099 c 1.248,-3.473 1.09,-7.295 -0.438,-10.653 l -14.258,-31.321 c -0.47,-1.032 -0.301,-2.242 0.433,-3.106 0.734,-0.864 1.902,-1.226 2.996,-0.928 0.805,0.219 1.479,0.771 1.851,1.518 l 20.312,40.749 v 72.053 c 0,6.647 4.588,12.209 10.766,13.73 z"
         id="path1131" />
      <circle
         cx="146.239"
         cy="26.044001"
         r="26.038"
         id="circle1133" />
    </g>
    <g
       transform="matrix(0.08845321,0,0,0.08845321,23.390599,129.77946)"
       id="g1256">
      <g
         id="g1166">
	<path
   style="fill:#20272e"
   d="m 65.658,422.803 c -4.035,0 -7.663,-2.809 -8.545,-6.914 L 51.614,390.283 C 45.583,362.198 62.569,334.287 90.285,326.74 l 16.883,-4.596 c 4.657,-1.267 9.47,1.482 10.739,6.144 1.269,4.663 -1.482,9.471 -6.144,10.741 l -16.881,4.595 c -18.748,5.105 -30.24,23.987 -26.159,42.986 l 5.499,25.606 c 1.014,4.725 -1.993,9.377 -6.717,10.392 -0.621,0.131 -1.238,0.195 -1.847,0.195 z"
   id="path1150" />

	<path
   style="fill:#20272e"
   d="m 17.152,338.958 c -0.352,0 -0.707,-0.022 -1.065,-0.065 -4.797,-0.582 -8.214,-4.943 -7.632,-9.74 l 3.156,-25.999 c 3.461,-28.516 28.651,-49.362 57.283,-47.451 l 17.457,1.162 c 4.821,0.321 8.47,4.49 8.148,9.31 -0.321,4.821 -4.512,8.461 -9.31,8.148 l -17.457,-1.162 c -19.394,-1.284 -36.411,12.81 -38.751,32.1 l -3.156,25.999 c -0.537,4.441 -4.311,7.698 -8.673,7.698 z"
   id="path1152" />

	<path
   style="fill:#20272e"
   d="m 8.742,235.468 c -1.409,0 -2.839,-0.341 -4.163,-1.06 -4.249,-2.304 -5.822,-7.615 -3.518,-11.863 L 13.55,199.525 C 27.249,174.276 58.314,164.139 84.265,176.45 l 15.808,7.496 c 4.365,2.071 6.227,7.289 4.156,11.654 -2.068,4.366 -7.286,6.226 -11.654,4.156 L 76.767,192.26 c -17.559,-8.328 -38.57,-1.47 -47.837,15.61 l -12.489,23.02 c -1.585,2.92 -4.592,4.578 -7.699,4.578 z"
   id="path1154" />

	<path
   style="fill:#20272e"
   d="m 145.519,139.397 c -2.697,0 -5.356,-1.241 -7.069,-3.585 l -10.328,-14.121 c -11.469,-15.686 -33.208,-19.67 -49.495,-9.068 l -21.949,14.288 c -4.044,2.636 -9.467,1.491 -12.105,-2.558 -2.636,-4.049 -1.491,-9.469 2.558,-12.105 L 69.079,97.959 c 24.073,-15.672 56.213,-9.785 73.167,13.404 l 10.328,14.121 c 2.852,3.901 2.003,9.375 -1.898,12.227 -1.557,1.137 -3.365,1.686 -5.157,1.686 z"
   id="path1156" />

	<path
   style="fill:#20272e"
   d="m 446.342,422.803 c -0.609,0 -1.227,-0.064 -1.847,-0.196 -4.725,-1.015 -7.731,-5.667 -6.717,-10.392 l 5.499,-25.606 c 4.081,-18.999 -7.411,-37.881 -26.16,-42.986 l -16.879,-4.595 c -4.663,-1.269 -7.414,-6.078 -6.144,-10.741 1.269,-4.663 6.081,-7.41 10.739,-6.144 l 16.88,4.595 c 27.718,7.547 44.704,35.459 38.672,63.544 l -5.499,25.606 c -0.881,4.106 -4.509,6.915 -8.544,6.915 z"
   id="path1158" />

	<path
   style="fill:#20272e"
   d="m 494.847,338.958 c -4.361,0 -8.136,-3.257 -8.675,-7.697 l -3.154,-25.999 c -2.341,-19.29 -19.352,-33.395 -38.752,-32.1 l -17.457,1.162 c -4.81,0.316 -8.99,-3.327 -9.31,-8.148 -0.32,-4.821 3.328,-8.991 8.148,-9.31 l 17.457,-1.162 c 28.67,-1.902 53.825,18.936 57.284,47.453 l 3.154,25.999 c 0.582,4.797 -2.835,9.158 -7.632,9.74 -0.356,0.041 -0.712,0.062 -1.063,0.062 z"
   id="path1160" />

	<path
   style="fill:#20272e"
   d="m 503.258,235.468 c -3.105,0 -6.113,-1.657 -7.698,-4.579 l -12.489,-23.02 c -9.267,-17.081 -30.283,-23.937 -47.839,-15.61 l -15.807,7.496 c -4.368,2.07 -9.586,0.21 -11.654,-4.156 -2.071,-4.366 -0.21,-9.583 4.156,-11.654 l 15.807,-7.496 c 25.949,-12.311 57.016,-2.176 70.716,23.075 l 12.489,23.02 c 2.305,4.247 0.73,9.559 -3.518,11.863 -1.325,0.719 -2.754,1.061 -4.163,1.061 z"
   id="path1162" />

	<path
   style="fill:#20272e"
   d="m 366.482,139.397 c -1.792,0 -3.6,-0.548 -5.157,-1.687 -3.901,-2.852 -4.75,-8.326 -1.898,-12.227 l 10.326,-14.121 c 16.954,-23.187 49.093,-29.077 73.168,-13.404 l 21.948,14.289 c 4.05,2.636 5.195,8.056 2.558,12.105 -2.639,4.05 -8.055,5.195 -12.105,2.558 l -21.948,-14.289 c -16.282,-10.599 -38.028,-6.619 -49.497,9.067 l -10.326,14.121 c -1.714,2.346 -4.373,3.588 -7.069,3.588 z"
   id="path1164" />

</g>
      <path
         style="fill:#5a595c"
         d="M 280.829,102.917 H 231.17 c -80.832,0 -146.359,65.527 -146.359,146.359 v 0 c 0,80.832 65.527,146.359 146.359,146.359 h 49.658 c 80.833,0 146.36,-65.527 146.36,-146.359 v 0 c 0,-80.832 -65.527,-146.359 -146.359,-146.359 z"
         id="path1168" />
      <g
         id="g1176">
	<circle
   style="fill:#20272e"
   cx="178.089"
   cy="263.79599"
   r="14.579"
   id="circle1170" />

	<circle
   style="fill:#20272e"
   cx="333.90701"
   cy="263.79599"
   r="14.579"
   id="circle1172" />

	<path
   style="fill:#20272e"
   d="m 307.329,291.819 c 0,28.349 -22.981,51.329 -51.329,51.329 -28.348,0 -51.329,-22.981 -51.329,-51.329 z"
   id="path1174" />

</g>
      <g
         id="g1182">
	<path
   style="fill:#ffffff"
   d="m 226.219,291.819 v 13.629 c 0,4.832 3.916,8.749 8.749,8.749 4.833,0 8.749,-3.917 8.749,-8.749 v -13.629 z"
   id="path1178" />

	<path
   style="fill:#ffffff"
   d="m 268.282,291.819 v 13.629 c 0,4.832 3.916,8.749 8.749,8.749 4.833,0 8.749,-3.917 8.749,-8.749 v -13.629 z"
   id="path1180" />

</g>
      <path
         style="opacity:0.3;fill:#20272e;enable-background:new"
         d="m 510.94,222.544 -12.489,-23.02 c -13.7,-25.25 -44.767,-35.386 -70.716,-23.075 l -15.807,7.496 c -0.028,0.013 -0.054,0.03 -0.082,0.044 -9.298,-18.623 -22.445,-34.987 -38.405,-48.045 0.035,-0.047 0.076,-0.086 0.111,-0.134 l 10.326,-14.121 c 11.47,-15.686 33.216,-19.667 49.497,-9.067 l 21.948,14.289 c 4.05,2.636 9.467,1.492 12.105,-2.558 2.636,-4.049 1.491,-9.469 -2.558,-12.105 L 442.922,97.959 c -24.076,-15.673 -56.215,-9.784 -73.168,13.404 l -10.326,14.121 c -0.053,0.072 -0.094,0.147 -0.145,0.22 -22.676,-14.426 -49.587,-22.787 -78.453,-22.787 h -24.829 v 292.719 h 24.829 c 47.608,0 89.898,-22.736 116.628,-57.936 0.821,0.587 1.751,1.048 2.781,1.329 l 16.879,4.595 c 18.749,5.105 30.241,23.987 26.16,42.986 l -5.499,25.606 c -1.014,4.725 1.993,9.377 6.717,10.392 0.619,0.133 1.238,0.196 1.847,0.196 4.035,0 7.663,-2.809 8.545,-6.914 l 5.499,-25.606 c 6.032,-28.085 -10.955,-55.996 -38.672,-63.544 l -14.336,-3.903 c 8.591,-14.747 14.675,-31.131 17.676,-48.571 0.572,0.077 1.158,0.099 1.755,0.061 l 17.457,-1.162 c 19.4,-1.295 36.411,12.81 38.752,32.1 l 3.154,25.999 c 0.539,4.439 4.313,7.697 8.675,7.697 0.352,0 0.707,-0.022 1.065,-0.065 4.797,-0.582 8.214,-4.943 7.632,-9.74 l -3.154,-25.999 c -3.46,-28.517 -28.615,-49.354 -57.284,-47.453 l -16.104,1.072 c 0.125,-2.484 0.189,-4.984 0.189,-7.499 v 0 c 0,-17.269 -3,-33.836 -8.491,-49.219 0.244,-0.09 0.488,-0.188 0.729,-0.301 l 15.807,-7.496 c 17.556,-8.327 38.57,-1.471 47.839,15.61 l 12.489,23.02 c 1.584,2.921 4.593,4.579 7.698,4.579 1.409,0 2.839,-0.341 4.163,-1.06 4.244,-2.307 5.818,-7.619 3.514,-11.866 z"
         id="path1184" />
      <g
         id="g1186">
</g>
      <g
         id="g1188">
</g>
      <g
         id="g1190">
</g>
      <g
         id="g1192">
</g>
      <g
         id="g1194">
</g>
      <g
         id="g1196">
</g>
      <g
         id="g1198">
</g>
      <g
         id="g1200">
</g>
      <g
         id="g1202">
</g>
      <g
         id="g1204">
</g>
      <g
         id="g1206">
</g>
      <g
         id="g1208">
</g>
      <g
         id="g1210">
</g>
      <g
         id="g1212">
</g>
      <g
         id="g1214">
</g>
    </g>
    <g
       transform="matrix(0.09080496,0.02909213,-0.02909213,0.09080496,68.318785,117.63211)"
       id="g2126">
      <path
         style="fill:#4d4d4d"
         d="m 438.27,315.336 c -28.1,0 -52.585,-15.761 -65.091,-38.903 10.072,7.79 24.169,14.868 42.202,14.868 7.846,0 16.436,-1.34 25.754,-4.543 4.602,-1.583 7.05,-6.596 5.469,-11.197 -1.582,-4.602 -6.597,-7.049 -11.197,-5.469 -43.59,14.982 -66.481,-22.252 -71.072,-30.803 V 112.805 c 0,-25.206 -20.507,-45.712 -45.712,-45.712 -25.205,0 -45.712,20.507 -45.712,45.712 v 319.808 c 0,17.955 -14.608,32.562 -32.562,32.562 -17.954,0 -32.562,-14.608 -32.562,-32.562 V 58.013 C 207.784,26.024 181.76,0 149.772,0 117.784,0 91.759,26.024 91.759,58.013 v 252.715 c 0,4.866 3.945,8.811 8.811,8.811 4.866,0 8.811,-3.945 8.811,-8.811 V 58.013 c 0,-22.272 18.12,-40.39 40.39,-40.39 22.27,0 40.39,18.118 40.39,40.39 v 374.601 c 0,27.672 22.514,50.185 50.185,50.185 27.671,0 50.185,-22.514 50.185,-50.185 V 112.805 c 0,-15.489 12.601,-28.089 28.089,-28.089 15.488,0 28.089,12.601 28.089,28.089 V 241.4 c 0,50.485 41.073,91.559 91.559,91.559 4.866,0 8.811,-3.945 8.811,-8.811 0,-4.866 -3.943,-8.812 -8.809,-8.812 z"
         id="path2038" />
      <rect
         x="73.728996"
         y="364.40201"
         style="fill:#2ba5f7"
         width="55.910999"
         height="91.684998"
         id="rect2040" />
      <rect
         x="73.728996"
         y="364.40201"
         style="fill:#2197d8"
         width="27.656"
         height="91.684998"
         id="rect2042" />
      <g
         id="g2048">
	<path
   style="fill:#f95428"
   d="m 129.639,456.089 v 35.986 c 0,11.008 -8.917,19.925 -19.925,19.925 H 93.666 c -11.008,0 -19.937,-8.917 -19.937,-19.925 v -35.986 z"
   id="path2044" />

	<path
   style="fill:#f95428"
   d="m 129.639,330.663 v 33.742 h -55.91 v -33.742 c 0,-11.008 8.929,-19.937 19.937,-19.937 h 16.048 c 11.008,-10e-4 19.925,8.928 19.925,19.937 z"
   id="path2046" />

</g>
      <g
         id="g2054">
	<path
   style="fill:#e54728"
   d="m 115.518,511.142 c -1.833,0.552 -3.783,0.858 -5.804,0.858 H 93.666 c -11.008,0 -19.937,-8.917 -19.937,-19.925 v -35.986 h 27.656 v 35.986 c -0.001,8.987 5.956,16.577 14.133,19.067 z"
   id="path2050" />

	<path
   style="fill:#e54728"
   d="M 101.384,364.404 H 73.729 v -33.742 c 0,-11.008 8.929,-19.937 19.937,-19.937 h 16.048 c 2.021,0 3.971,0.305 5.804,0.869 -8.177,2.479 -14.133,10.08 -14.133,19.068 -0.001,0.001 -0.001,33.742 -0.001,33.742 z"
   id="path2052" />

</g>
      <g
         id="g2060">
	<path
   style="fill:#666666"
   d="M 129.638,373.216 H 73.727 c -4.866,0 -8.811,-3.945 -8.811,-8.811 0,-4.866 3.945,-8.811 8.811,-8.811 h 55.911 c 4.866,0 8.811,3.945 8.811,8.811 10e-4,4.865 -3.943,8.811 -8.811,8.811 z"
   id="path2056" />

	<path
   style="fill:#666666"
   d="M 129.638,464.9 H 73.727 c -4.866,0 -8.811,-3.945 -8.811,-8.811 0,-4.866 3.945,-8.811 8.811,-8.811 h 55.911 c 4.866,0 8.811,3.945 8.811,8.811 0,4.866 -3.943,8.811 -8.811,8.811 z"
   id="path2058" />

</g>
      <g
         id="g2062">
</g>
      <g
         id="g2064">
</g>
      <g
         id="g2066">
</g>
      <g
         id="g2068">
</g>
      <g
         id="g2070">
</g>
      <g
         id="g2072">
</g>
      <g
         id="g2074">
</g>
      <g
         id="g2076">
</g>
      <g
         id="g2078">
</g>
      <g
         id="g2080">
</g>
      <g
         id="g2082">
</g>
      <g
         id="g2084">
</g>
      <g
         id="g2086">
</g>
      <g
         id="g2088">
</g>
      <g
         id="g2090">
</g>
    </g>
  </g>
</svg>
